<svg xmlns="http://www.w3.org/2000/svg" viewBox="0 0 1100 340" width="100%" role="img" aria-label="Python Ranking">
  <rect width="1100" height="340" fill="#ffffff" stroke="#e5e7eb" rx="10"/>
  <text x="20" y="30" fill="#111827" font-size="18" font-weight="700" font-family="system-ui,-apple-system,sans-serif">Python Ranking</text>
  <line x1="52" y1="96.80000000000001" x2="1072" y2="96.80000000000001" stroke="#e5e7eb" stroke-dasharray="5 5" stroke-width="1"/><line x1="52" y1="141.60000000000002" x2="1072" y2="141.60000000000002" stroke="#e5e7eb" stroke-dasharray="5 5" stroke-width="1"/><line x1="52" y1="186.4" x2="1072" y2="186.4" stroke="#e5e7eb" stroke-dasharray="5 5" stroke-width="1"/><line x1="52" y1="231.20000000000002" x2="1072" y2="231.20000000000002" stroke="#e5e7eb" stroke-dasharray="5 5" stroke-width="1"/><line x1="52" y1="276" x2="1072" y2="276" stroke="#e5e7eb" stroke-dasharray="5 5" stroke-width="1"/>
  <text x="42" y="56" fill="#6b7280" font-size="12" text-anchor="end" font-family="system-ui,-apple-system,sans-serif">0</text><text x="42" y="100.80000000000001" fill="#6b7280" font-size="12" text-anchor="end" font-family="system-ui,-apple-system,sans-serif">5</text><text x="42" y="145.60000000000002" fill="#6b7280" font-size="12" text-anchor="end" font-family="system-ui,-apple-system,sans-serif">10</text><text x="42" y="190.4" fill="#6b7280" font-size="12" text-anchor="end" font-family="system-ui,-apple-system,sans-serif">15</text><text x="42" y="235.20000000000002" fill="#6b7280" font-size="12" text-anchor="end" font-family="system-ui,-apple-system,sans-serif">20</text><text x="42" y="280" fill="#6b7280" font-size="12" text-anchor="end" font-family="system-ui,-apple-system,sans-serif">25</text>
  <path d="M52.0,78.9 L61.0,78.9 L70.1,61.0 L79.1,61.0 L88.1,61.0 L97.1,69.9 L106.2,87.8 L115.2,69.9 L124.2,141.6 L133.2,114.7 L142.3,240.2 L151.3,132.6 L160.3,78.9 L169.3,123.7 L178.4,159.5 L187.4,61.0 L196.4,61.0 L205.5,69.9 L214.5,249.1 L223.5,132.6 L232.5,61.0 L241.6,61.0 L250.6,69.9 L259.6,61.0 L268.6,61.0 L277.7,61.0 L286.7,69.9 L295.7,78.9 L304.7,168.5 L313.8,61.0 L322.8,61.0 L331.8,61.0 L340.8,195.4 L349.9,213.3 L358.9,240.2 L367.9,114.7 L377.0,231.2 L386.0,213.3 L395.0,267.0 L404.0,150.6 L413.1,231.2 L422.1,61.0 L431.1,61.0 L440.1,123.7 L449.2,186.4 L458.2,168.5 L467.2,276.0 L476.2,96.8 L485.3,132.6 L494.3,159.5 L503.3,168.5 L512.4,132.6 L521.4,78.9 L530.4,96.8 L539.4,78.9 L548.5,96.8 L557.5,204.3 L566.5,213.3 L575.5,87.8 L584.6,168.5 L593.6,96.8 L602.6,168.5 L611.6,249.1 L620.7,87.8 L629.7,78.9 L638.7,168.5 L647.8,69.9 L656.8,69.9 L665.8,105.8 L674.8,123.7 L683.9,159.5 L692.9,78.9 L701.9,141.6 L710.9,186.4 L720.0,141.6 L729.0,78.9 L738.0,78.9 L747.0,69.9 L756.1,114.7 L765.1,195.4 L774.1,69.9 L783.2,231.2 L792.2,186.4 L801.2,213.3 L810.2,204.3 L819.3,276.0 L828.3,240.2 L837.3,87.8 L846.3,132.6 L855.4,222.2 L864.4,195.4 L873.4,96.8 L882.4,69.9 L891.5,132.6 L900.5,132.6 L909.5,132.6 L918.5,186.4 L927.6,96.8 L936.6,267.0 L945.6,61.0 L954.7,61.0 L963.7,105.8 L972.7,141.6 L981.7,87.8 L990.8,213.3 L999.8,222.2 L1008.8,168.5 L1017.8,150.6 L1026.9,267.0 L1035.9,132.6 L1044.9,132.6 L1053.9,61.0 L1063.0,141.6 L1072.0,141.6" fill="none" stroke="#4f46e5" stroke-width="3.5" stroke-linecap="round" stroke-linejoin="round"/>
  <circle cx="52.0" cy="78.9" r="4.5" fill="#ffffff" stroke="#4f46e5" stroke-width="3"/><circle cx="61.0" cy="78.9" r="4.5" fill="#ffffff" stroke="#4f46e5" stroke-width="3"/><circle cx="70.1" cy="61.0" r="4.5" fill="#ffffff" stroke="#4f46e5" stroke-width="3"/><circle cx="79.1" cy="61.0" r="4.5" fill="#ffffff" stroke="#4f46e5" stroke-width="3"/><circle cx="88.1" cy="61.0" r="4.5" fill="#ffffff" stroke="#4f46e5" stroke-width="3"/><circle cx="97.1" cy="69.9" r="4.5" fill="#ffffff" stroke="#4f46e5" stroke-width="3"/><circle cx="106.2" cy="87.8" r="4.5" fill="#ffffff" stroke="#4f46e5" stroke-width="3"/><circle cx="115.2" cy="69.9" r="4.5" fill="#ffffff" stroke="#4f46e5" stroke-width="3"/><circle cx="124.2" cy="141.6" r="4.5" fill="#ffffff" stroke="#4f46e5" stroke-width="3"/><circle cx="133.2" cy="114.7" r="4.5" fill="#ffffff" stroke="#4f46e5" stroke-width="3"/><circle cx="142.3" cy="240.2" r="4.5" fill="#ffffff" stroke="#4f46e5" stroke-width="3"/><circle cx="151.3" cy="132.6" r="4.5" fill="#ffffff" stroke="#4f46e5" stroke-width="3"/><circle cx="160.3" cy="78.9" r="4.5" fill="#ffffff" stroke="#4f46e5" stroke-width="3"/><circle cx="169.3" cy="123.7" r="4.5" fill="#ffffff" stroke="#4f46e5" stroke-width="3"/><circle cx="178.4" cy="159.5" r="4.5" fill="#ffffff" stroke="#4f46e5" stroke-width="3"/><circle cx="187.4" cy="61.0" r="4.5" fill="#ffffff" stroke="#4f46e5" stroke-width="3"/><circle cx="196.4" cy="61.0" r="4.5" fill="#ffffff" stroke="#4f46e5" stroke-width="3"/><circle cx="205.5" cy="69.9" r="4.5" fill="#ffffff" stroke="#4f46e5" stroke-width="3"/><circle cx="214.5" cy="249.1" r="4.5" fill="#ffffff" stroke="#4f46e5" stroke-width="3"/><circle cx="223.5" cy="132.6" r="4.5" fill="#ffffff" stroke="#4f46e5" stroke-width="3"/><circle cx="232.5" cy="61.0" r="4.5" fill="#ffffff" stroke="#4f46e5" stroke-width="3"/><circle cx="241.6" cy="61.0" r="4.5" fill="#ffffff" stroke="#4f46e5" stroke-width="3"/><circle cx="250.6" cy="69.9" r="4.5" fill="#ffffff" stroke="#4f46e5" stroke-width="3"/><circle cx="259.6" cy="61.0" r="4.5" fill="#ffffff" stroke="#4f46e5" stroke-width="3"/><circle cx="268.6" cy="61.0" r="4.5" fill="#ffffff" stroke="#4f46e5" stroke-width="3"/><circle cx="277.7" cy="61.0" r="4.5" fill="#ffffff" stroke="#4f46e5" stroke-width="3"/><circle cx="286.7" cy="69.9" r="4.5" fill="#ffffff" stroke="#4f46e5" stroke-width="3"/><circle cx="295.7" cy="78.9" r="4.5" fill="#ffffff" stroke="#4f46e5" stroke-width="3"/><circle cx="304.7" cy="168.5" r="4.5" fill="#ffffff" stroke="#4f46e5" stroke-width="3"/><circle cx="313.8" cy="61.0" r="4.5" fill="#ffffff" stroke="#4f46e5" stroke-width="3"/><circle cx="322.8" cy="61.0" r="4.5" fill="#ffffff" stroke="#4f46e5" stroke-width="3"/><circle cx="331.8" cy="61.0" r="4.5" fill="#ffffff" stroke="#4f46e5" stroke-width="3"/><circle cx="340.8" cy="195.4" r="4.5" fill="#ffffff" stroke="#4f46e5" stroke-width="3"/><circle cx="349.9" cy="213.3" r="4.5" fill="#ffffff" stroke="#4f46e5" stroke-width="3"/><circle cx="358.9" cy="240.2" r="4.5" fill="#ffffff" stroke="#4f46e5" stroke-width="3"/><circle cx="367.9" cy="114.7" r="4.5" fill="#ffffff" stroke="#4f46e5" stroke-width="3"/><circle cx="377.0" cy="231.2" r="4.5" fill="#ffffff" stroke="#4f46e5" stroke-width="3"/><circle cx="386.0" cy="213.3" r="4.5" fill="#ffffff" stroke="#4f46e5" stroke-width="3"/><circle cx="395.0" cy="267.0" r="4.5" fill="#ffffff" stroke="#4f46e5" stroke-width="3"/><circle cx="404.0" cy="150.6" r="4.5" fill="#ffffff" stroke="#4f46e5" stroke-width="3"/><circle cx="413.1" cy="231.2" r="4.5" fill="#ffffff" stroke="#4f46e5" stroke-width="3"/><circle cx="422.1" cy="61.0" r="4.5" fill="#ffffff" stroke="#4f46e5" stroke-width="3"/><circle cx="431.1" cy="61.0" r="4.5" fill="#ffffff" stroke="#4f46e5" stroke-width="3"/><circle cx="440.1" cy="123.7" r="4.5" fill="#ffffff" stroke="#4f46e5" stroke-width="3"/><circle cx="449.2" cy="186.4" r="4.5" fill="#ffffff" stroke="#4f46e5" stroke-width="3"/><circle cx="458.2" cy="168.5" r="4.5" fill="#ffffff" stroke="#4f46e5" stroke-width="3"/><circle cx="467.2" cy="276.0" r="4.5" fill="#ffffff" stroke="#4f46e5" stroke-width="3"/><circle cx="476.2" cy="96.8" r="4.5" fill="#ffffff" stroke="#4f46e5" stroke-width="3"/><circle cx="485.3" cy="132.6" r="4.5" fill="#ffffff" stroke="#4f46e5" stroke-width="3"/><circle cx="494.3" cy="159.5" r="4.5" fill="#ffffff" stroke="#4f46e5" stroke-width="3"/><circle cx="503.3" cy="168.5" r="4.5" fill="#ffffff" stroke="#4f46e5" stroke-width="3"/><circle cx="512.4" cy="132.6" r="4.5" fill="#ffffff" stroke="#4f46e5" stroke-width="3"/><circle cx="521.4" cy="78.9" r="4.5" fill="#ffffff" stroke="#4f46e5" stroke-width="3"/><circle cx="530.4" cy="96.8" r="4.5" fill="#ffffff" stroke="#4f46e5" stroke-width="3"/><circle cx="539.4" cy="78.9" r="4.5" fill="#ffffff" stroke="#4f46e5" stroke-width="3"/><circle cx="548.5" cy="96.8" r="4.5" fill="#ffffff" stroke="#4f46e5" stroke-width="3"/><circle cx="557.5" cy="204.3" r="4.5" fill="#ffffff" stroke="#4f46e5" stroke-width="3"/><circle cx="566.5" cy="213.3" r="4.5" fill="#ffffff" stroke="#4f46e5" stroke-width="3"/><circle cx="575.5" cy="87.8" r="4.5" fill="#ffffff" stroke="#4f46e5" stroke-width="3"/><circle cx="584.6" cy="168.5" r="4.5" fill="#ffffff" stroke="#4f46e5" stroke-width="3"/><circle cx="593.6" cy="96.8" r="4.5" fill="#ffffff" stroke="#4f46e5" stroke-width="3"/><circle cx="602.6" cy="168.5" r="4.5" fill="#ffffff" stroke="#4f46e5" stroke-width="3"/><circle cx="611.6" cy="249.1" r="4.5" fill="#ffffff" stroke="#4f46e5" stroke-width="3"/><circle cx="620.7" cy="87.8" r="4.5" fill="#ffffff" stroke="#4f46e5" stroke-width="3"/><circle cx="629.7" cy="78.9" r="4.5" fill="#ffffff" stroke="#4f46e5" stroke-width="3"/><circle cx="638.7" cy="168.5" r="4.5" fill="#ffffff" stroke="#4f46e5" stroke-width="3"/><circle cx="647.8" cy="69.9" r="4.5" fill="#ffffff" stroke="#4f46e5" stroke-width="3"/><circle cx="656.8" cy="69.9" r="4.5" fill="#ffffff" stroke="#4f46e5" stroke-width="3"/><circle cx="665.8" cy="105.8" r="4.5" fill="#ffffff" stroke="#4f46e5" stroke-width="3"/><circle cx="674.8" cy="123.7" r="4.5" fill="#ffffff" stroke="#4f46e5" stroke-width="3"/><circle cx="683.9" cy="159.5" r="4.5" fill="#ffffff" stroke="#4f46e5" stroke-width="3"/><circle cx="692.9" cy="78.9" r="4.5" fill="#ffffff" stroke="#4f46e5" stroke-width="3"/><circle cx="701.9" cy="141.6" r="4.5" fill="#ffffff" stroke="#4f46e5" stroke-width="3"/><circle cx="710.9" cy="186.4" r="4.5" fill="#ffffff" stroke="#4f46e5" stroke-width="3"/><circle cx="720.0" cy="141.6" r="4.5" fill="#ffffff" stroke="#4f46e5" stroke-width="3"/><circle cx="729.0" cy="78.9" r="4.5" fill="#ffffff" stroke="#4f46e5" stroke-width="3"/><circle cx="738.0" cy="78.9" r="4.5" fill="#ffffff" stroke="#4f46e5" stroke-width="3"/><circle cx="747.0" cy="69.9" r="4.5" fill="#ffffff" stroke="#4f46e5" stroke-width="3"/><circle cx="756.1" cy="114.7" r="4.5" fill="#ffffff" stroke="#4f46e5" stroke-width="3"/><circle cx="765.1" cy="195.4" r="4.5" fill="#ffffff" stroke="#4f46e5" stroke-width="3"/><circle cx="774.1" cy="69.9" r="4.5" fill="#ffffff" stroke="#4f46e5" stroke-width="3"/><circle cx="783.2" cy="231.2" r="4.5" fill="#ffffff" stroke="#4f46e5" stroke-width="3"/><circle cx="792.2" cy="186.4" r="4.5" fill="#ffffff" stroke="#4f46e5" stroke-width="3"/><circle cx="801.2" cy="213.3" r="4.5" fill="#ffffff" stroke="#4f46e5" stroke-width="3"/><circle cx="810.2" cy="204.3" r="4.5" fill="#ffffff" stroke="#4f46e5" stroke-width="3"/><circle cx="819.3" cy="276.0" r="4.5" fill="#ffffff" stroke="#4f46e5" stroke-width="3"/><circle cx="828.3" cy="240.2" r="4.5" fill="#ffffff" stroke="#4f46e5" stroke-width="3"/><circle cx="837.3" cy="87.8" r="4.5" fill="#ffffff" stroke="#4f46e5" stroke-width="3"/><circle cx="846.3" cy="132.6" r="4.5" fill="#ffffff" stroke="#4f46e5" stroke-width="3"/><circle cx="855.4" cy="222.2" r="4.5" fill="#ffffff" stroke="#4f46e5" stroke-width="3"/><circle cx="864.4" cy="195.4" r="4.5" fill="#ffffff" stroke="#4f46e5" stroke-width="3"/><circle cx="873.4" cy="96.8" r="4.5" fill="#ffffff" stroke="#4f46e5" stroke-width="3"/><circle cx="882.4" cy="69.9" r="4.5" fill="#ffffff" stroke="#4f46e5" stroke-width="3"/><circle cx="891.5" cy="132.6" r="4.5" fill="#ffffff" stroke="#4f46e5" stroke-width="3"/><circle cx="900.5" cy="132.6" r="4.5" fill="#ffffff" stroke="#4f46e5" stroke-width="3"/><circle cx="909.5" cy="132.6" r="4.5" fill="#ffffff" stroke="#4f46e5" stroke-width="3"/><circle cx="918.5" cy="186.4" r="4.5" fill="#ffffff" stroke="#4f46e5" stroke-width="3"/><circle cx="927.6" cy="96.8" r="4.5" fill="#ffffff" stroke="#4f46e5" stroke-width="3"/><circle cx="936.6" cy="267.0" r="4.5" fill="#ffffff" stroke="#4f46e5" stroke-width="3"/><circle cx="945.6" cy="61.0" r="4.5" fill="#ffffff" stroke="#4f46e5" stroke-width="3"/><circle cx="954.7" cy="61.0" r="4.5" fill="#ffffff" stroke="#4f46e5" stroke-width="3"/><circle cx="963.7" cy="105.8" r="4.5" fill="#ffffff" stroke="#4f46e5" stroke-width="3"/><circle cx="972.7" cy="141.6" r="4.5" fill="#ffffff" stroke="#4f46e5" stroke-width="3"/><circle cx="981.7" cy="87.8" r="4.5" fill="#ffffff" stroke="#4f46e5" stroke-width="3"/><circle cx="990.8" cy="213.3" r="4.5" fill="#ffffff" stroke="#4f46e5" stroke-width="3"/><circle cx="999.8" cy="222.2" r="4.5" fill="#ffffff" stroke="#4f46e5" stroke-width="3"/><circle cx="1008.8" cy="168.5" r="4.5" fill="#ffffff" stroke="#4f46e5" stroke-width="3"/><circle cx="1017.8" cy="150.6" r="4.5" fill="#ffffff" stroke="#4f46e5" stroke-width="3"/><circle cx="1026.9" cy="267.0" r="4.5" fill="#ffffff" stroke="#4f46e5" stroke-width="3"/><circle cx="1035.9" cy="132.6" r="4.5" fill="#ffffff" stroke="#4f46e5" stroke-width="3"/><circle cx="1044.9" cy="132.6" r="4.5" fill="#ffffff" stroke="#4f46e5" stroke-width="3"/><circle cx="1053.9" cy="61.0" r="4.5" fill="#ffffff" stroke="#4f46e5" stroke-width="3"/><circle cx="1063.0" cy="141.6" r="4.5" fill="#ffffff" stroke="#4f46e5" stroke-width="3"/><circle cx="1072.0" cy="141.6" r="4.5" fill="#ffffff" stroke="#4f46e5" stroke-width="3"/>
  <text x="52.0" y="322" fill="#6b7280" font-size="12" text-anchor="start" font-family="system-ui,-apple-system,sans-serif">2025-05-29</text><text x="196.4" y="322" fill="#6b7280" font-size="12" text-anchor="middle" font-family="system-ui,-apple-system,sans-serif">2025-06-30</text><text x="340.8" y="322" fill="#6b7280" font-size="12" text-anchor="middle" font-family="system-ui,-apple-system,sans-serif">2025-07-30</text><text x="485.3" y="322" fill="#6b7280" font-size="12" text-anchor="middle" font-family="system-ui,-apple-system,sans-serif">2026-04-19</text><text x="638.7" y="322" fill="#6b7280" font-size="12" text-anchor="middle" font-family="system-ui,-apple-system,sans-serif">2026-05-26</text><text x="783.2" y="322" fill="#6b7280" font-size="12" text-anchor="middle" font-family="system-ui,-apple-system,sans-serif">2026-06-29</text><text x="927.6" y="322" fill="#6b7280" font-size="12" text-anchor="middle" font-family="system-ui,-apple-system,sans-serif">2026-08-26</text><text x="1072.0" y="322" fill="#6b7280" font-size="12" text-anchor="end" font-family="system-ui,-apple-system,sans-serif">2026-09-20</text>
</svg>