<svg xmlns="http://www.w3.org/2000/svg" viewBox="0 0 1100 340" width="100%" role="img" aria-label="Python Ranking">
  <rect width="1100" height="340" fill="#161b22" stroke="#30363d" rx="10"/>
  <text x="20" y="30" fill="#e6edf3" font-size="18" font-weight="700" font-family="system-ui,-apple-system,sans-serif">Python Ranking</text>
  <line x1="52" y1="96.80000000000001" x2="1072" y2="96.80000000000001" stroke="#30363d" stroke-dasharray="5 5" stroke-width="1"/><line x1="52" y1="141.60000000000002" x2="1072" y2="141.60000000000002" stroke="#30363d" stroke-dasharray="5 5" stroke-width="1"/><line x1="52" y1="186.4" x2="1072" y2="186.4" stroke="#30363d" stroke-dasharray="5 5" stroke-width="1"/><line x1="52" y1="231.20000000000002" x2="1072" y2="231.20000000000002" stroke="#30363d" stroke-dasharray="5 5" stroke-width="1"/><line x1="52" y1="276" x2="1072" y2="276" stroke="#30363d" stroke-dasharray="5 5" stroke-width="1"/>
  <text x="42" y="56" fill="#8b949e" font-size="12" text-anchor="end" font-family="system-ui,-apple-system,sans-serif">0</text><text x="42" y="100.80000000000001" fill="#8b949e" font-size="12" text-anchor="end" font-family="system-ui,-apple-system,sans-serif">5</text><text x="42" y="145.60000000000002" fill="#8b949e" font-size="12" text-anchor="end" font-family="system-ui,-apple-system,sans-serif">10</text><text x="42" y="190.4" fill="#8b949e" font-size="12" text-anchor="end" font-family="system-ui,-apple-system,sans-serif">15</text><text x="42" y="235.20000000000002" fill="#8b949e" font-size="12" text-anchor="end" font-family="system-ui,-apple-system,sans-serif">20</text><text x="42" y="280" fill="#8b949e" font-size="12" text-anchor="end" font-family="system-ui,-apple-system,sans-serif">25</text>
  <path d="M52.0,78.9 L66.8,78.9 L81.6,61.0 L96.3,61.0 L111.1,61.0 L125.9,69.9 L140.7,87.8 L155.5,69.9 L170.3,141.6 L185.0,114.7 L199.8,240.2 L214.6,132.6 L229.4,78.9 L244.2,123.7 L259.0,159.5 L273.7,61.0 L288.5,61.0 L303.3,69.9 L318.1,249.1 L332.9,132.6 L347.7,61.0 L362.4,61.0 L377.2,69.9 L392.0,61.0 L406.8,61.0 L421.6,61.0 L436.3,69.9 L451.1,78.9 L465.9,168.5 L480.7,61.0 L495.5,61.0 L510.3,61.0 L525.0,195.4 L539.8,213.3 L554.6,240.2 L569.4,114.7 L584.2,231.2 L599.0,213.3 L613.7,267.0 L628.5,150.6 L643.3,231.2 L658.1,61.0 L672.9,61.0 L687.7,123.7 L702.4,186.4 L717.2,168.5 L732.0,276.0 L746.8,96.8 L761.6,132.6 L776.3,159.5 L791.1,168.5 L805.9,132.6 L820.7,78.9 L835.5,96.8 L850.3,78.9 L865.0,96.8 L879.8,204.3 L894.6,213.3 L909.4,87.8 L924.2,168.5 L939.0,96.8 L953.7,168.5 L968.5,249.1 L983.3,87.8 L998.1,78.9 L1012.9,168.5 L1027.7,69.9 L1042.4,69.9 L1057.2,105.8 L1072.0,123.7" fill="none" stroke="#818cf8" stroke-width="3.5" stroke-linecap="round" stroke-linejoin="round"/>
  <circle cx="52.0" cy="78.9" r="4.5" fill="#161b22" stroke="#818cf8" stroke-width="3"/><circle cx="66.8" cy="78.9" r="4.5" fill="#161b22" stroke="#818cf8" stroke-width="3"/><circle cx="81.6" cy="61.0" r="4.5" fill="#161b22" stroke="#818cf8" stroke-width="3"/><circle cx="96.3" cy="61.0" r="4.5" fill="#161b22" stroke="#818cf8" stroke-width="3"/><circle cx="111.1" cy="61.0" r="4.5" fill="#161b22" stroke="#818cf8" stroke-width="3"/><circle cx="125.9" cy="69.9" r="4.5" fill="#161b22" stroke="#818cf8" stroke-width="3"/><circle cx="140.7" cy="87.8" r="4.5" fill="#161b22" stroke="#818cf8" stroke-width="3"/><circle cx="155.5" cy="69.9" r="4.5" fill="#161b22" stroke="#818cf8" stroke-width="3"/><circle cx="170.3" cy="141.6" r="4.5" fill="#161b22" stroke="#818cf8" stroke-width="3"/><circle cx="185.0" cy="114.7" r="4.5" fill="#161b22" stroke="#818cf8" stroke-width="3"/><circle cx="199.8" cy="240.2" r="4.5" fill="#161b22" stroke="#818cf8" stroke-width="3"/><circle cx="214.6" cy="132.6" r="4.5" fill="#161b22" stroke="#818cf8" stroke-width="3"/><circle cx="229.4" cy="78.9" r="4.5" fill="#161b22" stroke="#818cf8" stroke-width="3"/><circle cx="244.2" cy="123.7" r="4.5" fill="#161b22" stroke="#818cf8" stroke-width="3"/><circle cx="259.0" cy="159.5" r="4.5" fill="#161b22" stroke="#818cf8" stroke-width="3"/><circle cx="273.7" cy="61.0" r="4.5" fill="#161b22" stroke="#818cf8" stroke-width="3"/><circle cx="288.5" cy="61.0" r="4.5" fill="#161b22" stroke="#818cf8" stroke-width="3"/><circle cx="303.3" cy="69.9" r="4.5" fill="#161b22" stroke="#818cf8" stroke-width="3"/><circle cx="318.1" cy="249.1" r="4.5" fill="#161b22" stroke="#818cf8" stroke-width="3"/><circle cx="332.9" cy="132.6" r="4.5" fill="#161b22" stroke="#818cf8" stroke-width="3"/><circle cx="347.7" cy="61.0" r="4.5" fill="#161b22" stroke="#818cf8" stroke-width="3"/><circle cx="362.4" cy="61.0" r="4.5" fill="#161b22" stroke="#818cf8" stroke-width="3"/><circle cx="377.2" cy="69.9" r="4.5" fill="#161b22" stroke="#818cf8" stroke-width="3"/><circle cx="392.0" cy="61.0" r="4.5" fill="#161b22" stroke="#818cf8" stroke-width="3"/><circle cx="406.8" cy="61.0" r="4.5" fill="#161b22" stroke="#818cf8" stroke-width="3"/><circle cx="421.6" cy="61.0" r="4.5" fill="#161b22" stroke="#818cf8" stroke-width="3"/><circle cx="436.3" cy="69.9" r="4.5" fill="#161b22" stroke="#818cf8" stroke-width="3"/><circle cx="451.1" cy="78.9" r="4.5" fill="#161b22" stroke="#818cf8" stroke-width="3"/><circle cx="465.9" cy="168.5" r="4.5" fill="#161b22" stroke="#818cf8" stroke-width="3"/><circle cx="480.7" cy="61.0" r="4.5" fill="#161b22" stroke="#818cf8" stroke-width="3"/><circle cx="495.5" cy="61.0" r="4.5" fill="#161b22" stroke="#818cf8" stroke-width="3"/><circle cx="510.3" cy="61.0" r="4.5" fill="#161b22" stroke="#818cf8" stroke-width="3"/><circle cx="525.0" cy="195.4" r="4.5" fill="#161b22" stroke="#818cf8" stroke-width="3"/><circle cx="539.8" cy="213.3" r="4.5" fill="#161b22" stroke="#818cf8" stroke-width="3"/><circle cx="554.6" cy="240.2" r="4.5" fill="#161b22" stroke="#818cf8" stroke-width="3"/><circle cx="569.4" cy="114.7" r="4.5" fill="#161b22" stroke="#818cf8" stroke-width="3"/><circle cx="584.2" cy="231.2" r="4.5" fill="#161b22" stroke="#818cf8" stroke-width="3"/><circle cx="599.0" cy="213.3" r="4.5" fill="#161b22" stroke="#818cf8" stroke-width="3"/><circle cx="613.7" cy="267.0" r="4.5" fill="#161b22" stroke="#818cf8" stroke-width="3"/><circle cx="628.5" cy="150.6" r="4.5" fill="#161b22" stroke="#818cf8" stroke-width="3"/><circle cx="643.3" cy="231.2" r="4.5" fill="#161b22" stroke="#818cf8" stroke-width="3"/><circle cx="658.1" cy="61.0" r="4.5" fill="#161b22" stroke="#818cf8" stroke-width="3"/><circle cx="672.9" cy="61.0" r="4.5" fill="#161b22" stroke="#818cf8" stroke-width="3"/><circle cx="687.7" cy="123.7" r="4.5" fill="#161b22" stroke="#818cf8" stroke-width="3"/><circle cx="702.4" cy="186.4" r="4.5" fill="#161b22" stroke="#818cf8" stroke-width="3"/><circle cx="717.2" cy="168.5" r="4.5" fill="#161b22" stroke="#818cf8" stroke-width="3"/><circle cx="732.0" cy="276.0" r="4.5" fill="#161b22" stroke="#818cf8" stroke-width="3"/><circle cx="746.8" cy="96.8" r="4.5" fill="#161b22" stroke="#818cf8" stroke-width="3"/><circle cx="761.6" cy="132.6" r="4.5" fill="#161b22" stroke="#818cf8" stroke-width="3"/><circle cx="776.3" cy="159.5" r="4.5" fill="#161b22" stroke="#818cf8" stroke-width="3"/><circle cx="791.1" cy="168.5" r="4.5" fill="#161b22" stroke="#818cf8" stroke-width="3"/><circle cx="805.9" cy="132.6" r="4.5" fill="#161b22" stroke="#818cf8" stroke-width="3"/><circle cx="820.7" cy="78.9" r="4.5" fill="#161b22" stroke="#818cf8" stroke-width="3"/><circle cx="835.5" cy="96.8" r="4.5" fill="#161b22" stroke="#818cf8" stroke-width="3"/><circle cx="850.3" cy="78.9" r="4.5" fill="#161b22" stroke="#818cf8" stroke-width="3"/><circle cx="865.0" cy="96.8" r="4.5" fill="#161b22" stroke="#818cf8" stroke-width="3"/><circle cx="879.8" cy="204.3" r="4.5" fill="#161b22" stroke="#818cf8" stroke-width="3"/><circle cx="894.6" cy="213.3" r="4.5" fill="#161b22" stroke="#818cf8" stroke-width="3"/><circle cx="909.4" cy="87.8" r="4.5" fill="#161b22" stroke="#818cf8" stroke-width="3"/><circle cx="924.2" cy="168.5" r="4.5" fill="#161b22" stroke="#818cf8" stroke-width="3"/><circle cx="939.0" cy="96.8" r="4.5" fill="#161b22" stroke="#818cf8" stroke-width="3"/><circle cx="953.7" cy="168.5" r="4.5" fill="#161b22" stroke="#818cf8" stroke-width="3"/><circle cx="968.5" cy="249.1" r="4.5" fill="#161b22" stroke="#818cf8" stroke-width="3"/><circle cx="983.3" cy="87.8" r="4.5" fill="#161b22" stroke="#818cf8" stroke-width="3"/><circle cx="998.1" cy="78.9" r="4.5" fill="#161b22" stroke="#818cf8" stroke-width="3"/><circle cx="1012.9" cy="168.5" r="4.5" fill="#161b22" stroke="#818cf8" stroke-width="3"/><circle cx="1027.7" cy="69.9" r="4.5" fill="#161b22" stroke="#818cf8" stroke-width="3"/><circle cx="1042.4" cy="69.9" r="4.5" fill="#161b22" stroke="#818cf8" stroke-width="3"/><circle cx="1057.2" cy="105.8" r="4.5" fill="#161b22" stroke="#818cf8" stroke-width="3"/><circle cx="1072.0" cy="123.7" r="4.5" fill="#161b22" stroke="#818cf8" stroke-width="3"/>
  <text x="52.0" y="322" fill="#8b949e" font-size="12" text-anchor="middle" font-family="system-ui,-apple-system,sans-serif">2025-05-29</text><text x="199.8" y="322" fill="#8b949e" font-size="12" text-anchor="middle" font-family="system-ui,-apple-system,sans-serif">2025-06-19</text><text x="347.7" y="322" fill="#8b949e" font-size="12" text-anchor="middle" font-family="system-ui,-apple-system,sans-serif">2025-07-08</text><text x="495.5" y="322" fill="#8b949e" font-size="12" text-anchor="middle" font-family="system-ui,-apple-system,sans-serif">2025-07-28</text><text x="628.5" y="322" fill="#8b949e" font-size="12" text-anchor="middle" font-family="system-ui,-apple-system,sans-serif">2026-03-27</text><text x="776.3" y="322" fill="#8b949e" font-size="12" text-anchor="middle" font-family="system-ui,-apple-system,sans-serif">2026-04-23</text><text x="924.2" y="322" fill="#8b949e" font-size="12" text-anchor="middle" font-family="system-ui,-apple-system,sans-serif">2026-05-15</text><text x="1072.0" y="322" fill="#8b949e" font-size="12" text-anchor="middle" font-family="system-ui,-apple-system,sans-serif">2026-06-06</text>
</svg>