<svg xmlns="http://www.w3.org/2000/svg" viewBox="0 0 1100 340" width="100%" role="img" aria-label="All Language Ranking">
  <rect width="1100" height="340" fill="#161b22" stroke="#30363d" rx="10"/>
  <text x="20" y="30" fill="#e6edf3" font-size="18" font-weight="700" font-family="system-ui,-apple-system,sans-serif">All Language Ranking</text>
  <line x1="52" y1="96.80000000000001" x2="1072" y2="96.80000000000001" stroke="#30363d" stroke-dasharray="5 5" stroke-width="1"/><line x1="52" y1="141.60000000000002" x2="1072" y2="141.60000000000002" stroke="#30363d" stroke-dasharray="5 5" stroke-width="1"/><line x1="52" y1="186.4" x2="1072" y2="186.4" stroke="#30363d" stroke-dasharray="5 5" stroke-width="1"/><line x1="52" y1="231.20000000000002" x2="1072" y2="231.20000000000002" stroke="#30363d" stroke-dasharray="5 5" stroke-width="1"/><line x1="52" y1="276" x2="1072" y2="276" stroke="#30363d" stroke-dasharray="5 5" stroke-width="1"/>
  <text x="42" y="56" fill="#8b949e" font-size="12" text-anchor="end" font-family="system-ui,-apple-system,sans-serif">0</text><text x="42" y="100.80000000000001" fill="#8b949e" font-size="12" text-anchor="end" font-family="system-ui,-apple-system,sans-serif">5</text><text x="42" y="145.60000000000002" fill="#8b949e" font-size="12" text-anchor="end" font-family="system-ui,-apple-system,sans-serif">10</text><text x="42" y="190.4" fill="#8b949e" font-size="12" text-anchor="end" font-family="system-ui,-apple-system,sans-serif">15</text><text x="42" y="235.20000000000002" fill="#8b949e" font-size="12" text-anchor="end" font-family="system-ui,-apple-system,sans-serif">20</text><text x="42" y="280" fill="#8b949e" font-size="12" text-anchor="end" font-family="system-ui,-apple-system,sans-serif">25</text>
  <path d="M52.0,159.5 L75.2,114.7 L98.4,61.0 L121.5,61.0 L144.7,61.0 L167.9,96.8 L191.1,213.3 L214.3,87.8 L237.5,258.1 L260.6,276.0 L283.8,222.2 L307.0,61.0 L330.2,123.7 L353.4,96.8 L376.5,61.0 L399.7,61.0 L422.9,78.9 L446.1,61.0 L469.3,69.9 L492.5,61.0 L515.6,159.5 L538.8,114.7 L562.0,69.9 L585.2,96.8 L608.4,87.8 L631.5,69.9 L654.7,69.9 L677.9,78.9 L701.1,132.6 L724.3,87.8 L747.5,213.3 L770.6,177.4 L793.8,276.0 L817.0,114.7 L840.2,78.9 L863.4,96.8 L886.5,132.6 L909.7,132.6 L932.9,105.8 L956.1,213.3 L979.3,267.0 L1002.5,105.8 L1025.6,213.3 L1048.8,114.7 L1072.0,114.7" fill="none" stroke="#818cf8" stroke-width="3.5" stroke-linecap="round" stroke-linejoin="round"/>
  <circle cx="52.0" cy="159.5" r="4.5" fill="#161b22" stroke="#818cf8" stroke-width="3"/><circle cx="75.2" cy="114.7" r="4.5" fill="#161b22" stroke="#818cf8" stroke-width="3"/><circle cx="98.4" cy="61.0" r="4.5" fill="#161b22" stroke="#818cf8" stroke-width="3"/><circle cx="121.5" cy="61.0" r="4.5" fill="#161b22" stroke="#818cf8" stroke-width="3"/><circle cx="144.7" cy="61.0" r="4.5" fill="#161b22" stroke="#818cf8" stroke-width="3"/><circle cx="167.9" cy="96.8" r="4.5" fill="#161b22" stroke="#818cf8" stroke-width="3"/><circle cx="191.1" cy="213.3" r="4.5" fill="#161b22" stroke="#818cf8" stroke-width="3"/><circle cx="214.3" cy="87.8" r="4.5" fill="#161b22" stroke="#818cf8" stroke-width="3"/><circle cx="237.5" cy="258.1" r="4.5" fill="#161b22" stroke="#818cf8" stroke-width="3"/><circle cx="260.6" cy="276.0" r="4.5" fill="#161b22" stroke="#818cf8" stroke-width="3"/><circle cx="283.8" cy="222.2" r="4.5" fill="#161b22" stroke="#818cf8" stroke-width="3"/><circle cx="307.0" cy="61.0" r="4.5" fill="#161b22" stroke="#818cf8" stroke-width="3"/><circle cx="330.2" cy="123.7" r="4.5" fill="#161b22" stroke="#818cf8" stroke-width="3"/><circle cx="353.4" cy="96.8" r="4.5" fill="#161b22" stroke="#818cf8" stroke-width="3"/><circle cx="376.5" cy="61.0" r="4.5" fill="#161b22" stroke="#818cf8" stroke-width="3"/><circle cx="399.7" cy="61.0" r="4.5" fill="#161b22" stroke="#818cf8" stroke-width="3"/><circle cx="422.9" cy="78.9" r="4.5" fill="#161b22" stroke="#818cf8" stroke-width="3"/><circle cx="446.1" cy="61.0" r="4.5" fill="#161b22" stroke="#818cf8" stroke-width="3"/><circle cx="469.3" cy="69.9" r="4.5" fill="#161b22" stroke="#818cf8" stroke-width="3"/><circle cx="492.5" cy="61.0" r="4.5" fill="#161b22" stroke="#818cf8" stroke-width="3"/><circle cx="515.6" cy="159.5" r="4.5" fill="#161b22" stroke="#818cf8" stroke-width="3"/><circle cx="538.8" cy="114.7" r="4.5" fill="#161b22" stroke="#818cf8" stroke-width="3"/><circle cx="562.0" cy="69.9" r="4.5" fill="#161b22" stroke="#818cf8" stroke-width="3"/><circle cx="585.2" cy="96.8" r="4.5" fill="#161b22" stroke="#818cf8" stroke-width="3"/><circle cx="608.4" cy="87.8" r="4.5" fill="#161b22" stroke="#818cf8" stroke-width="3"/><circle cx="631.5" cy="69.9" r="4.5" fill="#161b22" stroke="#818cf8" stroke-width="3"/><circle cx="654.7" cy="69.9" r="4.5" fill="#161b22" stroke="#818cf8" stroke-width="3"/><circle cx="677.9" cy="78.9" r="4.5" fill="#161b22" stroke="#818cf8" stroke-width="3"/><circle cx="701.1" cy="132.6" r="4.5" fill="#161b22" stroke="#818cf8" stroke-width="3"/><circle cx="724.3" cy="87.8" r="4.5" fill="#161b22" stroke="#818cf8" stroke-width="3"/><circle cx="747.5" cy="213.3" r="4.5" fill="#161b22" stroke="#818cf8" stroke-width="3"/><circle cx="770.6" cy="177.4" r="4.5" fill="#161b22" stroke="#818cf8" stroke-width="3"/><circle cx="793.8" cy="276.0" r="4.5" fill="#161b22" stroke="#818cf8" stroke-width="3"/><circle cx="817.0" cy="114.7" r="4.5" fill="#161b22" stroke="#818cf8" stroke-width="3"/><circle cx="840.2" cy="78.9" r="4.5" fill="#161b22" stroke="#818cf8" stroke-width="3"/><circle cx="863.4" cy="96.8" r="4.5" fill="#161b22" stroke="#818cf8" stroke-width="3"/><circle cx="886.5" cy="132.6" r="4.5" fill="#161b22" stroke="#818cf8" stroke-width="3"/><circle cx="909.7" cy="132.6" r="4.5" fill="#161b22" stroke="#818cf8" stroke-width="3"/><circle cx="932.9" cy="105.8" r="4.5" fill="#161b22" stroke="#818cf8" stroke-width="3"/><circle cx="956.1" cy="213.3" r="4.5" fill="#161b22" stroke="#818cf8" stroke-width="3"/><circle cx="979.3" cy="267.0" r="4.5" fill="#161b22" stroke="#818cf8" stroke-width="3"/><circle cx="1002.5" cy="105.8" r="4.5" fill="#161b22" stroke="#818cf8" stroke-width="3"/><circle cx="1025.6" cy="213.3" r="4.5" fill="#161b22" stroke="#818cf8" stroke-width="3"/><circle cx="1048.8" cy="114.7" r="4.5" fill="#161b22" stroke="#818cf8" stroke-width="3"/><circle cx="1072.0" cy="114.7" r="4.5" fill="#161b22" stroke="#818cf8" stroke-width="3"/>
  <text x="52.0" y="322" fill="#8b949e" font-size="12" text-anchor="start" font-family="system-ui,-apple-system,sans-serif">2025-05-29</text><text x="191.1" y="322" fill="#8b949e" font-size="12" text-anchor="middle" font-family="system-ui,-apple-system,sans-serif">2025-06-04</text><text x="353.4" y="322" fill="#8b949e" font-size="12" text-anchor="middle" font-family="system-ui,-apple-system,sans-serif">2025-07-01</text><text x="492.5" y="322" fill="#8b949e" font-size="12" text-anchor="middle" font-family="system-ui,-apple-system,sans-serif">2025-07-13</text><text x="631.5" y="322" fill="#8b949e" font-size="12" text-anchor="middle" font-family="system-ui,-apple-system,sans-serif">2026-04-01</text><text x="770.6" y="322" fill="#8b949e" font-size="12" text-anchor="middle" font-family="system-ui,-apple-system,sans-serif">2026-05-22</text><text x="932.9" y="322" fill="#8b949e" font-size="12" text-anchor="middle" font-family="system-ui,-apple-system,sans-serif">2026-06-25</text><text x="1072.0" y="322" fill="#8b949e" font-size="12" text-anchor="end" font-family="system-ui,-apple-system,sans-serif">2026-08-29</text>
</svg>