<svg xmlns="http://www.w3.org/2000/svg" viewBox="0 0 1100 340" width="100%" role="img" aria-label="Python Ranking">
  <rect width="1100" height="340" fill="#ffffff" stroke="#e5e7eb" rx="10"/>
  <text x="20" y="30" fill="#111827" font-size="18" font-weight="700" font-family="system-ui,-apple-system,sans-serif">Python Ranking</text>
  <line x1="52" y1="96.80000000000001" x2="1072" y2="96.80000000000001" stroke="#e5e7eb" stroke-dasharray="5 5" stroke-width="1"/><line x1="52" y1="141.60000000000002" x2="1072" y2="141.60000000000002" stroke="#e5e7eb" stroke-dasharray="5 5" stroke-width="1"/><line x1="52" y1="186.4" x2="1072" y2="186.4" stroke="#e5e7eb" stroke-dasharray="5 5" stroke-width="1"/><line x1="52" y1="231.20000000000002" x2="1072" y2="231.20000000000002" stroke="#e5e7eb" stroke-dasharray="5 5" stroke-width="1"/><line x1="52" y1="276" x2="1072" y2="276" stroke="#e5e7eb" stroke-dasharray="5 5" stroke-width="1"/>
  <text x="42" y="56" fill="#6b7280" font-size="12" text-anchor="end" font-family="system-ui,-apple-system,sans-serif">0</text><text x="42" y="100.80000000000001" fill="#6b7280" font-size="12" text-anchor="end" font-family="system-ui,-apple-system,sans-serif">5</text><text x="42" y="145.60000000000002" fill="#6b7280" font-size="12" text-anchor="end" font-family="system-ui,-apple-system,sans-serif">10</text><text x="42" y="190.4" fill="#6b7280" font-size="12" text-anchor="end" font-family="system-ui,-apple-system,sans-serif">15</text><text x="42" y="235.20000000000002" fill="#6b7280" font-size="12" text-anchor="end" font-family="system-ui,-apple-system,sans-serif">20</text><text x="42" y="280" fill="#6b7280" font-size="12" text-anchor="end" font-family="system-ui,-apple-system,sans-serif">25</text>
  <path d="M52.0,78.9 L65.8,78.9 L79.6,61.0 L93.4,61.0 L107.1,61.0 L120.9,69.9 L134.7,87.8 L148.5,69.9 L162.3,141.6 L176.1,114.7 L189.8,240.2 L203.6,132.6 L217.4,78.9 L231.2,123.7 L245.0,159.5 L258.8,61.0 L272.5,61.0 L286.3,69.9 L300.1,249.1 L313.9,132.6 L327.7,61.0 L341.5,61.0 L355.2,69.9 L369.0,61.0 L382.8,61.0 L396.6,61.0 L410.4,69.9 L424.2,78.9 L437.9,168.5 L451.7,61.0 L465.5,61.0 L479.3,61.0 L493.1,195.4 L506.9,213.3 L520.6,240.2 L534.4,114.7 L548.2,231.2 L562.0,213.3 L575.8,267.0 L589.6,150.6 L603.4,231.2 L617.1,61.0 L630.9,61.0 L644.7,123.7 L658.5,186.4 L672.3,168.5 L686.1,276.0 L699.8,96.8 L713.6,132.6 L727.4,159.5 L741.2,168.5 L755.0,132.6 L768.8,78.9 L782.5,96.8 L796.3,78.9 L810.1,96.8 L823.9,204.3 L837.7,213.3 L851.5,87.8 L865.2,168.5 L879.0,96.8 L892.8,168.5 L906.6,249.1 L920.4,87.8 L934.2,78.9 L947.9,168.5 L961.7,69.9 L975.5,69.9 L989.3,105.8 L1003.1,123.7 L1016.9,159.5 L1030.6,78.9 L1044.4,141.6 L1058.2,186.4 L1072.0,141.6" fill="none" stroke="#4f46e5" stroke-width="3.5" stroke-linecap="round" stroke-linejoin="round"/>
  <circle cx="52.0" cy="78.9" r="4.5" fill="#ffffff" stroke="#4f46e5" stroke-width="3"/><circle cx="65.8" cy="78.9" r="4.5" fill="#ffffff" stroke="#4f46e5" stroke-width="3"/><circle cx="79.6" cy="61.0" r="4.5" fill="#ffffff" stroke="#4f46e5" stroke-width="3"/><circle cx="93.4" cy="61.0" r="4.5" fill="#ffffff" stroke="#4f46e5" stroke-width="3"/><circle cx="107.1" cy="61.0" r="4.5" fill="#ffffff" stroke="#4f46e5" stroke-width="3"/><circle cx="120.9" cy="69.9" r="4.5" fill="#ffffff" stroke="#4f46e5" stroke-width="3"/><circle cx="134.7" cy="87.8" r="4.5" fill="#ffffff" stroke="#4f46e5" stroke-width="3"/><circle cx="148.5" cy="69.9" r="4.5" fill="#ffffff" stroke="#4f46e5" stroke-width="3"/><circle cx="162.3" cy="141.6" r="4.5" fill="#ffffff" stroke="#4f46e5" stroke-width="3"/><circle cx="176.1" cy="114.7" r="4.5" fill="#ffffff" stroke="#4f46e5" stroke-width="3"/><circle cx="189.8" cy="240.2" r="4.5" fill="#ffffff" stroke="#4f46e5" stroke-width="3"/><circle cx="203.6" cy="132.6" r="4.5" fill="#ffffff" stroke="#4f46e5" stroke-width="3"/><circle cx="217.4" cy="78.9" r="4.5" fill="#ffffff" stroke="#4f46e5" stroke-width="3"/><circle cx="231.2" cy="123.7" r="4.5" fill="#ffffff" stroke="#4f46e5" stroke-width="3"/><circle cx="245.0" cy="159.5" r="4.5" fill="#ffffff" stroke="#4f46e5" stroke-width="3"/><circle cx="258.8" cy="61.0" r="4.5" fill="#ffffff" stroke="#4f46e5" stroke-width="3"/><circle cx="272.5" cy="61.0" r="4.5" fill="#ffffff" stroke="#4f46e5" stroke-width="3"/><circle cx="286.3" cy="69.9" r="4.5" fill="#ffffff" stroke="#4f46e5" stroke-width="3"/><circle cx="300.1" cy="249.1" r="4.5" fill="#ffffff" stroke="#4f46e5" stroke-width="3"/><circle cx="313.9" cy="132.6" r="4.5" fill="#ffffff" stroke="#4f46e5" stroke-width="3"/><circle cx="327.7" cy="61.0" r="4.5" fill="#ffffff" stroke="#4f46e5" stroke-width="3"/><circle cx="341.5" cy="61.0" r="4.5" fill="#ffffff" stroke="#4f46e5" stroke-width="3"/><circle cx="355.2" cy="69.9" r="4.5" fill="#ffffff" stroke="#4f46e5" stroke-width="3"/><circle cx="369.0" cy="61.0" r="4.5" fill="#ffffff" stroke="#4f46e5" stroke-width="3"/><circle cx="382.8" cy="61.0" r="4.5" fill="#ffffff" stroke="#4f46e5" stroke-width="3"/><circle cx="396.6" cy="61.0" r="4.5" fill="#ffffff" stroke="#4f46e5" stroke-width="3"/><circle cx="410.4" cy="69.9" r="4.5" fill="#ffffff" stroke="#4f46e5" stroke-width="3"/><circle cx="424.2" cy="78.9" r="4.5" fill="#ffffff" stroke="#4f46e5" stroke-width="3"/><circle cx="437.9" cy="168.5" r="4.5" fill="#ffffff" stroke="#4f46e5" stroke-width="3"/><circle cx="451.7" cy="61.0" r="4.5" fill="#ffffff" stroke="#4f46e5" stroke-width="3"/><circle cx="465.5" cy="61.0" r="4.5" fill="#ffffff" stroke="#4f46e5" stroke-width="3"/><circle cx="479.3" cy="61.0" r="4.5" fill="#ffffff" stroke="#4f46e5" stroke-width="3"/><circle cx="493.1" cy="195.4" r="4.5" fill="#ffffff" stroke="#4f46e5" stroke-width="3"/><circle cx="506.9" cy="213.3" r="4.5" fill="#ffffff" stroke="#4f46e5" stroke-width="3"/><circle cx="520.6" cy="240.2" r="4.5" fill="#ffffff" stroke="#4f46e5" stroke-width="3"/><circle cx="534.4" cy="114.7" r="4.5" fill="#ffffff" stroke="#4f46e5" stroke-width="3"/><circle cx="548.2" cy="231.2" r="4.5" fill="#ffffff" stroke="#4f46e5" stroke-width="3"/><circle cx="562.0" cy="213.3" r="4.5" fill="#ffffff" stroke="#4f46e5" stroke-width="3"/><circle cx="575.8" cy="267.0" r="4.5" fill="#ffffff" stroke="#4f46e5" stroke-width="3"/><circle cx="589.6" cy="150.6" r="4.5" fill="#ffffff" stroke="#4f46e5" stroke-width="3"/><circle cx="603.4" cy="231.2" r="4.5" fill="#ffffff" stroke="#4f46e5" stroke-width="3"/><circle cx="617.1" cy="61.0" r="4.5" fill="#ffffff" stroke="#4f46e5" stroke-width="3"/><circle cx="630.9" cy="61.0" r="4.5" fill="#ffffff" stroke="#4f46e5" stroke-width="3"/><circle cx="644.7" cy="123.7" r="4.5" fill="#ffffff" stroke="#4f46e5" stroke-width="3"/><circle cx="658.5" cy="186.4" r="4.5" fill="#ffffff" stroke="#4f46e5" stroke-width="3"/><circle cx="672.3" cy="168.5" r="4.5" fill="#ffffff" stroke="#4f46e5" stroke-width="3"/><circle cx="686.1" cy="276.0" r="4.5" fill="#ffffff" stroke="#4f46e5" stroke-width="3"/><circle cx="699.8" cy="96.8" r="4.5" fill="#ffffff" stroke="#4f46e5" stroke-width="3"/><circle cx="713.6" cy="132.6" r="4.5" fill="#ffffff" stroke="#4f46e5" stroke-width="3"/><circle cx="727.4" cy="159.5" r="4.5" fill="#ffffff" stroke="#4f46e5" stroke-width="3"/><circle cx="741.2" cy="168.5" r="4.5" fill="#ffffff" stroke="#4f46e5" stroke-width="3"/><circle cx="755.0" cy="132.6" r="4.5" fill="#ffffff" stroke="#4f46e5" stroke-width="3"/><circle cx="768.8" cy="78.9" r="4.5" fill="#ffffff" stroke="#4f46e5" stroke-width="3"/><circle cx="782.5" cy="96.8" r="4.5" fill="#ffffff" stroke="#4f46e5" stroke-width="3"/><circle cx="796.3" cy="78.9" r="4.5" fill="#ffffff" stroke="#4f46e5" stroke-width="3"/><circle cx="810.1" cy="96.8" r="4.5" fill="#ffffff" stroke="#4f46e5" stroke-width="3"/><circle cx="823.9" cy="204.3" r="4.5" fill="#ffffff" stroke="#4f46e5" stroke-width="3"/><circle cx="837.7" cy="213.3" r="4.5" fill="#ffffff" stroke="#4f46e5" stroke-width="3"/><circle cx="851.5" cy="87.8" r="4.5" fill="#ffffff" stroke="#4f46e5" stroke-width="3"/><circle cx="865.2" cy="168.5" r="4.5" fill="#ffffff" stroke="#4f46e5" stroke-width="3"/><circle cx="879.0" cy="96.8" r="4.5" fill="#ffffff" stroke="#4f46e5" stroke-width="3"/><circle cx="892.8" cy="168.5" r="4.5" fill="#ffffff" stroke="#4f46e5" stroke-width="3"/><circle cx="906.6" cy="249.1" r="4.5" fill="#ffffff" stroke="#4f46e5" stroke-width="3"/><circle cx="920.4" cy="87.8" r="4.5" fill="#ffffff" stroke="#4f46e5" stroke-width="3"/><circle cx="934.2" cy="78.9" r="4.5" fill="#ffffff" stroke="#4f46e5" stroke-width="3"/><circle cx="947.9" cy="168.5" r="4.5" fill="#ffffff" stroke="#4f46e5" stroke-width="3"/><circle cx="961.7" cy="69.9" r="4.5" fill="#ffffff" stroke="#4f46e5" stroke-width="3"/><circle cx="975.5" cy="69.9" r="4.5" fill="#ffffff" stroke="#4f46e5" stroke-width="3"/><circle cx="989.3" cy="105.8" r="4.5" fill="#ffffff" stroke="#4f46e5" stroke-width="3"/><circle cx="1003.1" cy="123.7" r="4.5" fill="#ffffff" stroke="#4f46e5" stroke-width="3"/><circle cx="1016.9" cy="159.5" r="4.5" fill="#ffffff" stroke="#4f46e5" stroke-width="3"/><circle cx="1030.6" cy="78.9" r="4.5" fill="#ffffff" stroke="#4f46e5" stroke-width="3"/><circle cx="1044.4" cy="141.6" r="4.5" fill="#ffffff" stroke="#4f46e5" stroke-width="3"/><circle cx="1058.2" cy="186.4" r="4.5" fill="#ffffff" stroke="#4f46e5" stroke-width="3"/><circle cx="1072.0" cy="141.6" r="4.5" fill="#ffffff" stroke="#4f46e5" stroke-width="3"/>
  <text x="52.0" y="322" fill="#6b7280" font-size="12" text-anchor="middle" font-family="system-ui,-apple-system,sans-serif">2025-05-29</text><text x="203.6" y="322" fill="#6b7280" font-size="12" text-anchor="middle" font-family="system-ui,-apple-system,sans-serif">2025-06-20</text><text x="341.5" y="322" fill="#6b7280" font-size="12" text-anchor="middle" font-family="system-ui,-apple-system,sans-serif">2025-07-09</text><text x="493.1" y="322" fill="#6b7280" font-size="12" text-anchor="middle" font-family="system-ui,-apple-system,sans-serif">2025-07-30</text><text x="630.9" y="322" fill="#6b7280" font-size="12" text-anchor="middle" font-family="system-ui,-apple-system,sans-serif">2026-04-02</text><text x="782.5" y="322" fill="#6b7280" font-size="12" text-anchor="middle" font-family="system-ui,-apple-system,sans-serif">2026-05-05</text><text x="920.4" y="322" fill="#6b7280" font-size="12" text-anchor="middle" font-family="system-ui,-apple-system,sans-serif">2026-05-22</text><text x="1072.0" y="322" fill="#6b7280" font-size="12" text-anchor="middle" font-family="system-ui,-apple-system,sans-serif">2026-06-20</text>
</svg>