<svg xmlns="http://www.w3.org/2000/svg" viewBox="0 0 1100 340" width="100%" role="img" aria-label="Python Ranking">
  <rect width="1100" height="340" fill="#ffffff" stroke="#e5e7eb" rx="10"/>
  <text x="20" y="30" fill="#111827" font-size="18" font-weight="700" font-family="system-ui,-apple-system,sans-serif">Python Ranking</text>
  <line x1="52" y1="96.80000000000001" x2="1072" y2="96.80000000000001" stroke="#e5e7eb" stroke-dasharray="5 5" stroke-width="1"/><line x1="52" y1="141.60000000000002" x2="1072" y2="141.60000000000002" stroke="#e5e7eb" stroke-dasharray="5 5" stroke-width="1"/><line x1="52" y1="186.4" x2="1072" y2="186.4" stroke="#e5e7eb" stroke-dasharray="5 5" stroke-width="1"/><line x1="52" y1="231.20000000000002" x2="1072" y2="231.20000000000002" stroke="#e5e7eb" stroke-dasharray="5 5" stroke-width="1"/><line x1="52" y1="276" x2="1072" y2="276" stroke="#e5e7eb" stroke-dasharray="5 5" stroke-width="1"/>
  <text x="42" y="56" fill="#6b7280" font-size="12" text-anchor="end" font-family="system-ui,-apple-system,sans-serif">0</text><text x="42" y="100.80000000000001" fill="#6b7280" font-size="12" text-anchor="end" font-family="system-ui,-apple-system,sans-serif">5</text><text x="42" y="145.60000000000002" fill="#6b7280" font-size="12" text-anchor="end" font-family="system-ui,-apple-system,sans-serif">10</text><text x="42" y="190.4" fill="#6b7280" font-size="12" text-anchor="end" font-family="system-ui,-apple-system,sans-serif">15</text><text x="42" y="235.20000000000002" fill="#6b7280" font-size="12" text-anchor="end" font-family="system-ui,-apple-system,sans-serif">20</text><text x="42" y="280" fill="#6b7280" font-size="12" text-anchor="end" font-family="system-ui,-apple-system,sans-serif">25</text>
  <path d="M52.0,78.9 L60.8,78.9 L69.6,61.0 L78.4,61.0 L87.2,61.0 L96.0,69.9 L104.8,87.8 L113.6,69.9 L122.3,141.6 L131.1,114.7 L139.9,240.2 L148.7,132.6 L157.5,78.9 L166.3,123.7 L175.1,159.5 L183.9,61.0 L192.7,61.0 L201.5,69.9 L210.3,249.1 L219.1,132.6 L227.9,61.0 L236.7,61.0 L245.4,69.9 L254.2,61.0 L263.0,61.0 L271.8,61.0 L280.6,69.9 L289.4,78.9 L298.2,168.5 L307.0,61.0 L315.8,61.0 L324.6,61.0 L333.4,195.4 L342.2,213.3 L351.0,240.2 L359.8,114.7 L368.6,231.2 L377.3,213.3 L386.1,267.0 L394.9,150.6 L403.7,231.2 L412.5,61.0 L421.3,61.0 L430.1,123.7 L438.9,186.4 L447.7,168.5 L456.5,276.0 L465.3,96.8 L474.1,132.6 L482.9,159.5 L491.7,168.5 L500.4,132.6 L509.2,78.9 L518.0,96.8 L526.8,78.9 L535.6,96.8 L544.4,204.3 L553.2,213.3 L562.0,87.8 L570.8,168.5 L579.6,96.8 L588.4,168.5 L597.2,249.1 L606.0,87.8 L614.8,78.9 L623.6,168.5 L632.3,69.9 L641.1,69.9 L649.9,105.8 L658.7,123.7 L667.5,159.5 L676.3,78.9 L685.1,141.6 L693.9,186.4 L702.7,141.6 L711.5,78.9 L720.3,78.9 L729.1,69.9 L737.9,114.7 L746.7,195.4 L755.4,69.9 L764.2,231.2 L773.0,186.4 L781.8,213.3 L790.6,204.3 L799.4,276.0 L808.2,240.2 L817.0,87.8 L825.8,132.6 L834.6,222.2 L843.4,195.4 L852.2,96.8 L861.0,69.9 L869.8,132.6 L878.6,132.6 L887.3,132.6 L896.1,186.4 L904.9,96.8 L913.7,267.0 L922.5,61.0 L931.3,61.0 L940.1,105.8 L948.9,141.6 L957.7,87.8 L966.5,213.3 L975.3,222.2 L984.1,168.5 L992.9,150.6 L1001.7,267.0 L1010.4,132.6 L1019.2,132.6 L1028.0,61.0 L1036.8,141.6 L1045.6,123.7 L1054.4,267.0 L1063.2,96.8 L1072.0,96.8" fill="none" stroke="#4f46e5" stroke-width="3.5" stroke-linecap="round" stroke-linejoin="round"/>
  <circle cx="52.0" cy="78.9" r="4.5" fill="#ffffff" stroke="#4f46e5" stroke-width="3"/><circle cx="60.8" cy="78.9" r="4.5" fill="#ffffff" stroke="#4f46e5" stroke-width="3"/><circle cx="69.6" cy="61.0" r="4.5" fill="#ffffff" stroke="#4f46e5" stroke-width="3"/><circle cx="78.4" cy="61.0" r="4.5" fill="#ffffff" stroke="#4f46e5" stroke-width="3"/><circle cx="87.2" cy="61.0" r="4.5" fill="#ffffff" stroke="#4f46e5" stroke-width="3"/><circle cx="96.0" cy="69.9" r="4.5" fill="#ffffff" stroke="#4f46e5" stroke-width="3"/><circle cx="104.8" cy="87.8" r="4.5" fill="#ffffff" stroke="#4f46e5" stroke-width="3"/><circle cx="113.6" cy="69.9" r="4.5" fill="#ffffff" stroke="#4f46e5" stroke-width="3"/><circle cx="122.3" cy="141.6" r="4.5" fill="#ffffff" stroke="#4f46e5" stroke-width="3"/><circle cx="131.1" cy="114.7" r="4.5" fill="#ffffff" stroke="#4f46e5" stroke-width="3"/><circle cx="139.9" cy="240.2" r="4.5" fill="#ffffff" stroke="#4f46e5" stroke-width="3"/><circle cx="148.7" cy="132.6" r="4.5" fill="#ffffff" stroke="#4f46e5" stroke-width="3"/><circle cx="157.5" cy="78.9" r="4.5" fill="#ffffff" stroke="#4f46e5" stroke-width="3"/><circle cx="166.3" cy="123.7" r="4.5" fill="#ffffff" stroke="#4f46e5" stroke-width="3"/><circle cx="175.1" cy="159.5" r="4.5" fill="#ffffff" stroke="#4f46e5" stroke-width="3"/><circle cx="183.9" cy="61.0" r="4.5" fill="#ffffff" stroke="#4f46e5" stroke-width="3"/><circle cx="192.7" cy="61.0" r="4.5" fill="#ffffff" stroke="#4f46e5" stroke-width="3"/><circle cx="201.5" cy="69.9" r="4.5" fill="#ffffff" stroke="#4f46e5" stroke-width="3"/><circle cx="210.3" cy="249.1" r="4.5" fill="#ffffff" stroke="#4f46e5" stroke-width="3"/><circle cx="219.1" cy="132.6" r="4.5" fill="#ffffff" stroke="#4f46e5" stroke-width="3"/><circle cx="227.9" cy="61.0" r="4.5" fill="#ffffff" stroke="#4f46e5" stroke-width="3"/><circle cx="236.7" cy="61.0" r="4.5" fill="#ffffff" stroke="#4f46e5" stroke-width="3"/><circle cx="245.4" cy="69.9" r="4.5" fill="#ffffff" stroke="#4f46e5" stroke-width="3"/><circle cx="254.2" cy="61.0" r="4.5" fill="#ffffff" stroke="#4f46e5" stroke-width="3"/><circle cx="263.0" cy="61.0" r="4.5" fill="#ffffff" stroke="#4f46e5" stroke-width="3"/><circle cx="271.8" cy="61.0" r="4.5" fill="#ffffff" stroke="#4f46e5" stroke-width="3"/><circle cx="280.6" cy="69.9" r="4.5" fill="#ffffff" stroke="#4f46e5" stroke-width="3"/><circle cx="289.4" cy="78.9" r="4.5" fill="#ffffff" stroke="#4f46e5" stroke-width="3"/><circle cx="298.2" cy="168.5" r="4.5" fill="#ffffff" stroke="#4f46e5" stroke-width="3"/><circle cx="307.0" cy="61.0" r="4.5" fill="#ffffff" stroke="#4f46e5" stroke-width="3"/><circle cx="315.8" cy="61.0" r="4.5" fill="#ffffff" stroke="#4f46e5" stroke-width="3"/><circle cx="324.6" cy="61.0" r="4.5" fill="#ffffff" stroke="#4f46e5" stroke-width="3"/><circle cx="333.4" cy="195.4" r="4.5" fill="#ffffff" stroke="#4f46e5" stroke-width="3"/><circle cx="342.2" cy="213.3" r="4.5" fill="#ffffff" stroke="#4f46e5" stroke-width="3"/><circle cx="351.0" cy="240.2" r="4.5" fill="#ffffff" stroke="#4f46e5" stroke-width="3"/><circle cx="359.8" cy="114.7" r="4.5" fill="#ffffff" stroke="#4f46e5" stroke-width="3"/><circle cx="368.6" cy="231.2" r="4.5" fill="#ffffff" stroke="#4f46e5" stroke-width="3"/><circle cx="377.3" cy="213.3" r="4.5" fill="#ffffff" stroke="#4f46e5" stroke-width="3"/><circle cx="386.1" cy="267.0" r="4.5" fill="#ffffff" stroke="#4f46e5" stroke-width="3"/><circle cx="394.9" cy="150.6" r="4.5" fill="#ffffff" stroke="#4f46e5" stroke-width="3"/><circle cx="403.7" cy="231.2" r="4.5" fill="#ffffff" stroke="#4f46e5" stroke-width="3"/><circle cx="412.5" cy="61.0" r="4.5" fill="#ffffff" stroke="#4f46e5" stroke-width="3"/><circle cx="421.3" cy="61.0" r="4.5" fill="#ffffff" stroke="#4f46e5" stroke-width="3"/><circle cx="430.1" cy="123.7" r="4.5" fill="#ffffff" stroke="#4f46e5" stroke-width="3"/><circle cx="438.9" cy="186.4" r="4.5" fill="#ffffff" stroke="#4f46e5" stroke-width="3"/><circle cx="447.7" cy="168.5" r="4.5" fill="#ffffff" stroke="#4f46e5" stroke-width="3"/><circle cx="456.5" cy="276.0" r="4.5" fill="#ffffff" stroke="#4f46e5" stroke-width="3"/><circle cx="465.3" cy="96.8" r="4.5" fill="#ffffff" stroke="#4f46e5" stroke-width="3"/><circle cx="474.1" cy="132.6" r="4.5" fill="#ffffff" stroke="#4f46e5" stroke-width="3"/><circle cx="482.9" cy="159.5" r="4.5" fill="#ffffff" stroke="#4f46e5" stroke-width="3"/><circle cx="491.7" cy="168.5" r="4.5" fill="#ffffff" stroke="#4f46e5" stroke-width="3"/><circle cx="500.4" cy="132.6" r="4.5" fill="#ffffff" stroke="#4f46e5" stroke-width="3"/><circle cx="509.2" cy="78.9" r="4.5" fill="#ffffff" stroke="#4f46e5" stroke-width="3"/><circle cx="518.0" cy="96.8" r="4.5" fill="#ffffff" stroke="#4f46e5" stroke-width="3"/><circle cx="526.8" cy="78.9" r="4.5" fill="#ffffff" stroke="#4f46e5" stroke-width="3"/><circle cx="535.6" cy="96.8" r="4.5" fill="#ffffff" stroke="#4f46e5" stroke-width="3"/><circle cx="544.4" cy="204.3" r="4.5" fill="#ffffff" stroke="#4f46e5" stroke-width="3"/><circle cx="553.2" cy="213.3" r="4.5" fill="#ffffff" stroke="#4f46e5" stroke-width="3"/><circle cx="562.0" cy="87.8" r="4.5" fill="#ffffff" stroke="#4f46e5" stroke-width="3"/><circle cx="570.8" cy="168.5" r="4.5" fill="#ffffff" stroke="#4f46e5" stroke-width="3"/><circle cx="579.6" cy="96.8" r="4.5" fill="#ffffff" stroke="#4f46e5" stroke-width="3"/><circle cx="588.4" cy="168.5" r="4.5" fill="#ffffff" stroke="#4f46e5" stroke-width="3"/><circle cx="597.2" cy="249.1" r="4.5" fill="#ffffff" stroke="#4f46e5" stroke-width="3"/><circle cx="606.0" cy="87.8" r="4.5" fill="#ffffff" stroke="#4f46e5" stroke-width="3"/><circle cx="614.8" cy="78.9" r="4.5" fill="#ffffff" stroke="#4f46e5" stroke-width="3"/><circle cx="623.6" cy="168.5" r="4.5" fill="#ffffff" stroke="#4f46e5" stroke-width="3"/><circle cx="632.3" cy="69.9" r="4.5" fill="#ffffff" stroke="#4f46e5" stroke-width="3"/><circle cx="641.1" cy="69.9" r="4.5" fill="#ffffff" stroke="#4f46e5" stroke-width="3"/><circle cx="649.9" cy="105.8" r="4.5" fill="#ffffff" stroke="#4f46e5" stroke-width="3"/><circle cx="658.7" cy="123.7" r="4.5" fill="#ffffff" stroke="#4f46e5" stroke-width="3"/><circle cx="667.5" cy="159.5" r="4.5" fill="#ffffff" stroke="#4f46e5" stroke-width="3"/><circle cx="676.3" cy="78.9" r="4.5" fill="#ffffff" stroke="#4f46e5" stroke-width="3"/><circle cx="685.1" cy="141.6" r="4.5" fill="#ffffff" stroke="#4f46e5" stroke-width="3"/><circle cx="693.9" cy="186.4" r="4.5" fill="#ffffff" stroke="#4f46e5" stroke-width="3"/><circle cx="702.7" cy="141.6" r="4.5" fill="#ffffff" stroke="#4f46e5" stroke-width="3"/><circle cx="711.5" cy="78.9" r="4.5" fill="#ffffff" stroke="#4f46e5" stroke-width="3"/><circle cx="720.3" cy="78.9" r="4.5" fill="#ffffff" stroke="#4f46e5" stroke-width="3"/><circle cx="729.1" cy="69.9" r="4.5" fill="#ffffff" stroke="#4f46e5" stroke-width="3"/><circle cx="737.9" cy="114.7" r="4.5" fill="#ffffff" stroke="#4f46e5" stroke-width="3"/><circle cx="746.7" cy="195.4" r="4.5" fill="#ffffff" stroke="#4f46e5" stroke-width="3"/><circle cx="755.4" cy="69.9" r="4.5" fill="#ffffff" stroke="#4f46e5" stroke-width="3"/><circle cx="764.2" cy="231.2" r="4.5" fill="#ffffff" stroke="#4f46e5" stroke-width="3"/><circle cx="773.0" cy="186.4" r="4.5" fill="#ffffff" stroke="#4f46e5" stroke-width="3"/><circle cx="781.8" cy="213.3" r="4.5" fill="#ffffff" stroke="#4f46e5" stroke-width="3"/><circle cx="790.6" cy="204.3" r="4.5" fill="#ffffff" stroke="#4f46e5" stroke-width="3"/><circle cx="799.4" cy="276.0" r="4.5" fill="#ffffff" stroke="#4f46e5" stroke-width="3"/><circle cx="808.2" cy="240.2" r="4.5" fill="#ffffff" stroke="#4f46e5" stroke-width="3"/><circle cx="817.0" cy="87.8" r="4.5" fill="#ffffff" stroke="#4f46e5" stroke-width="3"/><circle cx="825.8" cy="132.6" r="4.5" fill="#ffffff" stroke="#4f46e5" stroke-width="3"/><circle cx="834.6" cy="222.2" r="4.5" fill="#ffffff" stroke="#4f46e5" stroke-width="3"/><circle cx="843.4" cy="195.4" r="4.5" fill="#ffffff" stroke="#4f46e5" stroke-width="3"/><circle cx="852.2" cy="96.8" r="4.5" fill="#ffffff" stroke="#4f46e5" stroke-width="3"/><circle cx="861.0" cy="69.9" r="4.5" fill="#ffffff" stroke="#4f46e5" stroke-width="3"/><circle cx="869.8" cy="132.6" r="4.5" fill="#ffffff" stroke="#4f46e5" stroke-width="3"/><circle cx="878.6" cy="132.6" r="4.5" fill="#ffffff" stroke="#4f46e5" stroke-width="3"/><circle cx="887.3" cy="132.6" r="4.5" fill="#ffffff" stroke="#4f46e5" stroke-width="3"/><circle cx="896.1" cy="186.4" r="4.5" fill="#ffffff" stroke="#4f46e5" stroke-width="3"/><circle cx="904.9" cy="96.8" r="4.5" fill="#ffffff" stroke="#4f46e5" stroke-width="3"/><circle cx="913.7" cy="267.0" r="4.5" fill="#ffffff" stroke="#4f46e5" stroke-width="3"/><circle cx="922.5" cy="61.0" r="4.5" fill="#ffffff" stroke="#4f46e5" stroke-width="3"/><circle cx="931.3" cy="61.0" r="4.5" fill="#ffffff" stroke="#4f46e5" stroke-width="3"/><circle cx="940.1" cy="105.8" r="4.5" fill="#ffffff" stroke="#4f46e5" stroke-width="3"/><circle cx="948.9" cy="141.6" r="4.5" fill="#ffffff" stroke="#4f46e5" stroke-width="3"/><circle cx="957.7" cy="87.8" r="4.5" fill="#ffffff" stroke="#4f46e5" stroke-width="3"/><circle cx="966.5" cy="213.3" r="4.5" fill="#ffffff" stroke="#4f46e5" stroke-width="3"/><circle cx="975.3" cy="222.2" r="4.5" fill="#ffffff" stroke="#4f46e5" stroke-width="3"/><circle cx="984.1" cy="168.5" r="4.5" fill="#ffffff" stroke="#4f46e5" stroke-width="3"/><circle cx="992.9" cy="150.6" r="4.5" fill="#ffffff" stroke="#4f46e5" stroke-width="3"/><circle cx="1001.7" cy="267.0" r="4.5" fill="#ffffff" stroke="#4f46e5" stroke-width="3"/><circle cx="1010.4" cy="132.6" r="4.5" fill="#ffffff" stroke="#4f46e5" stroke-width="3"/><circle cx="1019.2" cy="132.6" r="4.5" fill="#ffffff" stroke="#4f46e5" stroke-width="3"/><circle cx="1028.0" cy="61.0" r="4.5" fill="#ffffff" stroke="#4f46e5" stroke-width="3"/><circle cx="1036.8" cy="141.6" r="4.5" fill="#ffffff" stroke="#4f46e5" stroke-width="3"/><circle cx="1045.6" cy="123.7" r="4.5" fill="#ffffff" stroke="#4f46e5" stroke-width="3"/><circle cx="1054.4" cy="267.0" r="4.5" fill="#ffffff" stroke="#4f46e5" stroke-width="3"/><circle cx="1063.2" cy="96.8" r="4.5" fill="#ffffff" stroke="#4f46e5" stroke-width="3"/><circle cx="1072.0" cy="96.8" r="4.5" fill="#ffffff" stroke="#4f46e5" stroke-width="3"/>
  <text x="52.0" y="322" fill="#6b7280" font-size="12" text-anchor="start" font-family="system-ui,-apple-system,sans-serif">2025-05-29</text><text x="201.5" y="322" fill="#6b7280" font-size="12" text-anchor="middle" font-family="system-ui,-apple-system,sans-serif">2025-07-01</text><text x="342.2" y="322" fill="#6b7280" font-size="12" text-anchor="middle" font-family="system-ui,-apple-system,sans-serif">2025-08-11</text><text x="491.7" y="322" fill="#6b7280" font-size="12" text-anchor="middle" font-family="system-ui,-apple-system,sans-serif">2026-04-29</text><text x="632.3" y="322" fill="#6b7280" font-size="12" text-anchor="middle" font-family="system-ui,-apple-system,sans-serif">2026-06-03</text><text x="781.8" y="322" fill="#6b7280" font-size="12" text-anchor="middle" font-family="system-ui,-apple-system,sans-serif">2026-07-15</text><text x="922.5" y="322" fill="#6b7280" font-size="12" text-anchor="middle" font-family="system-ui,-apple-system,sans-serif">2026-08-28</text><text x="1072.0" y="322" fill="#6b7280" font-size="12" text-anchor="end" font-family="system-ui,-apple-system,sans-serif">2026-10-01</text>
</svg>