<svg xmlns="http://www.w3.org/2000/svg" viewBox="0 0 1100 340" width="100%" role="img" aria-label="Python Ranking">
  <rect width="1100" height="340" fill="#ffffff" stroke="#e5e7eb" rx="10"/>
  <text x="20" y="30" fill="#111827" font-size="18" font-weight="700" font-family="system-ui,-apple-system,sans-serif">Python Ranking</text>
  <line x1="52" y1="96.80000000000001" x2="1072" y2="96.80000000000001" stroke="#e5e7eb" stroke-dasharray="5 5" stroke-width="1"/><line x1="52" y1="141.60000000000002" x2="1072" y2="141.60000000000002" stroke="#e5e7eb" stroke-dasharray="5 5" stroke-width="1"/><line x1="52" y1="186.4" x2="1072" y2="186.4" stroke="#e5e7eb" stroke-dasharray="5 5" stroke-width="1"/><line x1="52" y1="231.20000000000002" x2="1072" y2="231.20000000000002" stroke="#e5e7eb" stroke-dasharray="5 5" stroke-width="1"/><line x1="52" y1="276" x2="1072" y2="276" stroke="#e5e7eb" stroke-dasharray="5 5" stroke-width="1"/>
  <text x="42" y="56" fill="#6b7280" font-size="12" text-anchor="end" font-family="system-ui,-apple-system,sans-serif">0</text><text x="42" y="100.80000000000001" fill="#6b7280" font-size="12" text-anchor="end" font-family="system-ui,-apple-system,sans-serif">5</text><text x="42" y="145.60000000000002" fill="#6b7280" font-size="12" text-anchor="end" font-family="system-ui,-apple-system,sans-serif">10</text><text x="42" y="190.4" fill="#6b7280" font-size="12" text-anchor="end" font-family="system-ui,-apple-system,sans-serif">15</text><text x="42" y="235.20000000000002" fill="#6b7280" font-size="12" text-anchor="end" font-family="system-ui,-apple-system,sans-serif">20</text><text x="42" y="280" fill="#6b7280" font-size="12" text-anchor="end" font-family="system-ui,-apple-system,sans-serif">25</text>
  <path d="M52.0,78.9 L60.9,78.9 L69.9,61.0 L78.8,61.0 L87.8,61.0 L96.7,69.9 L105.7,87.8 L114.6,69.9 L123.6,141.6 L132.5,114.7 L141.5,240.2 L150.4,132.6 L159.4,78.9 L168.3,123.7 L177.3,159.5 L186.2,61.0 L195.2,61.0 L204.1,69.9 L213.1,249.1 L222.0,132.6 L230.9,61.0 L239.9,61.0 L248.8,69.9 L257.8,61.0 L266.7,61.0 L275.7,61.0 L284.6,69.9 L293.6,78.9 L302.5,168.5 L311.5,61.0 L320.4,61.0 L329.4,61.0 L338.3,195.4 L347.3,213.3 L356.2,240.2 L365.2,114.7 L374.1,231.2 L383.1,213.3 L392.0,267.0 L400.9,150.6 L409.9,231.2 L418.8,61.0 L427.8,61.0 L436.7,123.7 L445.7,186.4 L454.6,168.5 L463.6,276.0 L472.5,96.8 L481.5,132.6 L490.4,159.5 L499.4,168.5 L508.3,132.6 L517.3,78.9 L526.2,96.8 L535.2,78.9 L544.1,96.8 L553.1,204.3 L562.0,213.3 L570.9,87.8 L579.9,168.5 L588.8,96.8 L597.8,168.5 L606.7,249.1 L615.7,87.8 L624.6,78.9 L633.6,168.5 L642.5,69.9 L651.5,69.9 L660.4,105.8 L669.4,123.7 L678.3,159.5 L687.3,78.9 L696.2,141.6 L705.2,186.4 L714.1,141.6 L723.1,78.9 L732.0,78.9 L740.9,69.9 L749.9,114.7 L758.8,195.4 L767.8,69.9 L776.7,231.2 L785.7,186.4 L794.6,213.3 L803.6,204.3 L812.5,276.0 L821.5,240.2 L830.4,87.8 L839.4,132.6 L848.3,222.2 L857.3,195.4 L866.2,96.8 L875.2,69.9 L884.1,132.6 L893.1,132.6 L902.0,132.6 L910.9,186.4 L919.9,96.8 L928.8,267.0 L937.8,61.0 L946.7,61.0 L955.7,105.8 L964.6,141.6 L973.6,87.8 L982.5,213.3 L991.5,222.2 L1000.4,168.5 L1009.4,150.6 L1018.3,267.0 L1027.3,132.6 L1036.2,132.6 L1045.2,61.0 L1054.1,141.6 L1063.1,123.7 L1072.0,267.0" fill="none" stroke="#4f46e5" stroke-width="3.5" stroke-linecap="round" stroke-linejoin="round"/>
  <circle cx="52.0" cy="78.9" r="4.5" fill="#ffffff" stroke="#4f46e5" stroke-width="3"/><circle cx="60.9" cy="78.9" r="4.5" fill="#ffffff" stroke="#4f46e5" stroke-width="3"/><circle cx="69.9" cy="61.0" r="4.5" fill="#ffffff" stroke="#4f46e5" stroke-width="3"/><circle cx="78.8" cy="61.0" r="4.5" fill="#ffffff" stroke="#4f46e5" stroke-width="3"/><circle cx="87.8" cy="61.0" r="4.5" fill="#ffffff" stroke="#4f46e5" stroke-width="3"/><circle cx="96.7" cy="69.9" r="4.5" fill="#ffffff" stroke="#4f46e5" stroke-width="3"/><circle cx="105.7" cy="87.8" r="4.5" fill="#ffffff" stroke="#4f46e5" stroke-width="3"/><circle cx="114.6" cy="69.9" r="4.5" fill="#ffffff" stroke="#4f46e5" stroke-width="3"/><circle cx="123.6" cy="141.6" r="4.5" fill="#ffffff" stroke="#4f46e5" stroke-width="3"/><circle cx="132.5" cy="114.7" r="4.5" fill="#ffffff" stroke="#4f46e5" stroke-width="3"/><circle cx="141.5" cy="240.2" r="4.5" fill="#ffffff" stroke="#4f46e5" stroke-width="3"/><circle cx="150.4" cy="132.6" r="4.5" fill="#ffffff" stroke="#4f46e5" stroke-width="3"/><circle cx="159.4" cy="78.9" r="4.5" fill="#ffffff" stroke="#4f46e5" stroke-width="3"/><circle cx="168.3" cy="123.7" r="4.5" fill="#ffffff" stroke="#4f46e5" stroke-width="3"/><circle cx="177.3" cy="159.5" r="4.5" fill="#ffffff" stroke="#4f46e5" stroke-width="3"/><circle cx="186.2" cy="61.0" r="4.5" fill="#ffffff" stroke="#4f46e5" stroke-width="3"/><circle cx="195.2" cy="61.0" r="4.5" fill="#ffffff" stroke="#4f46e5" stroke-width="3"/><circle cx="204.1" cy="69.9" r="4.5" fill="#ffffff" stroke="#4f46e5" stroke-width="3"/><circle cx="213.1" cy="249.1" r="4.5" fill="#ffffff" stroke="#4f46e5" stroke-width="3"/><circle cx="222.0" cy="132.6" r="4.5" fill="#ffffff" stroke="#4f46e5" stroke-width="3"/><circle cx="230.9" cy="61.0" r="4.5" fill="#ffffff" stroke="#4f46e5" stroke-width="3"/><circle cx="239.9" cy="61.0" r="4.5" fill="#ffffff" stroke="#4f46e5" stroke-width="3"/><circle cx="248.8" cy="69.9" r="4.5" fill="#ffffff" stroke="#4f46e5" stroke-width="3"/><circle cx="257.8" cy="61.0" r="4.5" fill="#ffffff" stroke="#4f46e5" stroke-width="3"/><circle cx="266.7" cy="61.0" r="4.5" fill="#ffffff" stroke="#4f46e5" stroke-width="3"/><circle cx="275.7" cy="61.0" r="4.5" fill="#ffffff" stroke="#4f46e5" stroke-width="3"/><circle cx="284.6" cy="69.9" r="4.5" fill="#ffffff" stroke="#4f46e5" stroke-width="3"/><circle cx="293.6" cy="78.9" r="4.5" fill="#ffffff" stroke="#4f46e5" stroke-width="3"/><circle cx="302.5" cy="168.5" r="4.5" fill="#ffffff" stroke="#4f46e5" stroke-width="3"/><circle cx="311.5" cy="61.0" r="4.5" fill="#ffffff" stroke="#4f46e5" stroke-width="3"/><circle cx="320.4" cy="61.0" r="4.5" fill="#ffffff" stroke="#4f46e5" stroke-width="3"/><circle cx="329.4" cy="61.0" r="4.5" fill="#ffffff" stroke="#4f46e5" stroke-width="3"/><circle cx="338.3" cy="195.4" r="4.5" fill="#ffffff" stroke="#4f46e5" stroke-width="3"/><circle cx="347.3" cy="213.3" r="4.5" fill="#ffffff" stroke="#4f46e5" stroke-width="3"/><circle cx="356.2" cy="240.2" r="4.5" fill="#ffffff" stroke="#4f46e5" stroke-width="3"/><circle cx="365.2" cy="114.7" r="4.5" fill="#ffffff" stroke="#4f46e5" stroke-width="3"/><circle cx="374.1" cy="231.2" r="4.5" fill="#ffffff" stroke="#4f46e5" stroke-width="3"/><circle cx="383.1" cy="213.3" r="4.5" fill="#ffffff" stroke="#4f46e5" stroke-width="3"/><circle cx="392.0" cy="267.0" r="4.5" fill="#ffffff" stroke="#4f46e5" stroke-width="3"/><circle cx="400.9" cy="150.6" r="4.5" fill="#ffffff" stroke="#4f46e5" stroke-width="3"/><circle cx="409.9" cy="231.2" r="4.5" fill="#ffffff" stroke="#4f46e5" stroke-width="3"/><circle cx="418.8" cy="61.0" r="4.5" fill="#ffffff" stroke="#4f46e5" stroke-width="3"/><circle cx="427.8" cy="61.0" r="4.5" fill="#ffffff" stroke="#4f46e5" stroke-width="3"/><circle cx="436.7" cy="123.7" r="4.5" fill="#ffffff" stroke="#4f46e5" stroke-width="3"/><circle cx="445.7" cy="186.4" r="4.5" fill="#ffffff" stroke="#4f46e5" stroke-width="3"/><circle cx="454.6" cy="168.5" r="4.5" fill="#ffffff" stroke="#4f46e5" stroke-width="3"/><circle cx="463.6" cy="276.0" r="4.5" fill="#ffffff" stroke="#4f46e5" stroke-width="3"/><circle cx="472.5" cy="96.8" r="4.5" fill="#ffffff" stroke="#4f46e5" stroke-width="3"/><circle cx="481.5" cy="132.6" r="4.5" fill="#ffffff" stroke="#4f46e5" stroke-width="3"/><circle cx="490.4" cy="159.5" r="4.5" fill="#ffffff" stroke="#4f46e5" stroke-width="3"/><circle cx="499.4" cy="168.5" r="4.5" fill="#ffffff" stroke="#4f46e5" stroke-width="3"/><circle cx="508.3" cy="132.6" r="4.5" fill="#ffffff" stroke="#4f46e5" stroke-width="3"/><circle cx="517.3" cy="78.9" r="4.5" fill="#ffffff" stroke="#4f46e5" stroke-width="3"/><circle cx="526.2" cy="96.8" r="4.5" fill="#ffffff" stroke="#4f46e5" stroke-width="3"/><circle cx="535.2" cy="78.9" r="4.5" fill="#ffffff" stroke="#4f46e5" stroke-width="3"/><circle cx="544.1" cy="96.8" r="4.5" fill="#ffffff" stroke="#4f46e5" stroke-width="3"/><circle cx="553.1" cy="204.3" r="4.5" fill="#ffffff" stroke="#4f46e5" stroke-width="3"/><circle cx="562.0" cy="213.3" r="4.5" fill="#ffffff" stroke="#4f46e5" stroke-width="3"/><circle cx="570.9" cy="87.8" r="4.5" fill="#ffffff" stroke="#4f46e5" stroke-width="3"/><circle cx="579.9" cy="168.5" r="4.5" fill="#ffffff" stroke="#4f46e5" stroke-width="3"/><circle cx="588.8" cy="96.8" r="4.5" fill="#ffffff" stroke="#4f46e5" stroke-width="3"/><circle cx="597.8" cy="168.5" r="4.5" fill="#ffffff" stroke="#4f46e5" stroke-width="3"/><circle cx="606.7" cy="249.1" r="4.5" fill="#ffffff" stroke="#4f46e5" stroke-width="3"/><circle cx="615.7" cy="87.8" r="4.5" fill="#ffffff" stroke="#4f46e5" stroke-width="3"/><circle cx="624.6" cy="78.9" r="4.5" fill="#ffffff" stroke="#4f46e5" stroke-width="3"/><circle cx="633.6" cy="168.5" r="4.5" fill="#ffffff" stroke="#4f46e5" stroke-width="3"/><circle cx="642.5" cy="69.9" r="4.5" fill="#ffffff" stroke="#4f46e5" stroke-width="3"/><circle cx="651.5" cy="69.9" r="4.5" fill="#ffffff" stroke="#4f46e5" stroke-width="3"/><circle cx="660.4" cy="105.8" r="4.5" fill="#ffffff" stroke="#4f46e5" stroke-width="3"/><circle cx="669.4" cy="123.7" r="4.5" fill="#ffffff" stroke="#4f46e5" stroke-width="3"/><circle cx="678.3" cy="159.5" r="4.5" fill="#ffffff" stroke="#4f46e5" stroke-width="3"/><circle cx="687.3" cy="78.9" r="4.5" fill="#ffffff" stroke="#4f46e5" stroke-width="3"/><circle cx="696.2" cy="141.6" r="4.5" fill="#ffffff" stroke="#4f46e5" stroke-width="3"/><circle cx="705.2" cy="186.4" r="4.5" fill="#ffffff" stroke="#4f46e5" stroke-width="3"/><circle cx="714.1" cy="141.6" r="4.5" fill="#ffffff" stroke="#4f46e5" stroke-width="3"/><circle cx="723.1" cy="78.9" r="4.5" fill="#ffffff" stroke="#4f46e5" stroke-width="3"/><circle cx="732.0" cy="78.9" r="4.5" fill="#ffffff" stroke="#4f46e5" stroke-width="3"/><circle cx="740.9" cy="69.9" r="4.5" fill="#ffffff" stroke="#4f46e5" stroke-width="3"/><circle cx="749.9" cy="114.7" r="4.5" fill="#ffffff" stroke="#4f46e5" stroke-width="3"/><circle cx="758.8" cy="195.4" r="4.5" fill="#ffffff" stroke="#4f46e5" stroke-width="3"/><circle cx="767.8" cy="69.9" r="4.5" fill="#ffffff" stroke="#4f46e5" stroke-width="3"/><circle cx="776.7" cy="231.2" r="4.5" fill="#ffffff" stroke="#4f46e5" stroke-width="3"/><circle cx="785.7" cy="186.4" r="4.5" fill="#ffffff" stroke="#4f46e5" stroke-width="3"/><circle cx="794.6" cy="213.3" r="4.5" fill="#ffffff" stroke="#4f46e5" stroke-width="3"/><circle cx="803.6" cy="204.3" r="4.5" fill="#ffffff" stroke="#4f46e5" stroke-width="3"/><circle cx="812.5" cy="276.0" r="4.5" fill="#ffffff" stroke="#4f46e5" stroke-width="3"/><circle cx="821.5" cy="240.2" r="4.5" fill="#ffffff" stroke="#4f46e5" stroke-width="3"/><circle cx="830.4" cy="87.8" r="4.5" fill="#ffffff" stroke="#4f46e5" stroke-width="3"/><circle cx="839.4" cy="132.6" r="4.5" fill="#ffffff" stroke="#4f46e5" stroke-width="3"/><circle cx="848.3" cy="222.2" r="4.5" fill="#ffffff" stroke="#4f46e5" stroke-width="3"/><circle cx="857.3" cy="195.4" r="4.5" fill="#ffffff" stroke="#4f46e5" stroke-width="3"/><circle cx="866.2" cy="96.8" r="4.5" fill="#ffffff" stroke="#4f46e5" stroke-width="3"/><circle cx="875.2" cy="69.9" r="4.5" fill="#ffffff" stroke="#4f46e5" stroke-width="3"/><circle cx="884.1" cy="132.6" r="4.5" fill="#ffffff" stroke="#4f46e5" stroke-width="3"/><circle cx="893.1" cy="132.6" r="4.5" fill="#ffffff" stroke="#4f46e5" stroke-width="3"/><circle cx="902.0" cy="132.6" r="4.5" fill="#ffffff" stroke="#4f46e5" stroke-width="3"/><circle cx="910.9" cy="186.4" r="4.5" fill="#ffffff" stroke="#4f46e5" stroke-width="3"/><circle cx="919.9" cy="96.8" r="4.5" fill="#ffffff" stroke="#4f46e5" stroke-width="3"/><circle cx="928.8" cy="267.0" r="4.5" fill="#ffffff" stroke="#4f46e5" stroke-width="3"/><circle cx="937.8" cy="61.0" r="4.5" fill="#ffffff" stroke="#4f46e5" stroke-width="3"/><circle cx="946.7" cy="61.0" r="4.5" fill="#ffffff" stroke="#4f46e5" stroke-width="3"/><circle cx="955.7" cy="105.8" r="4.5" fill="#ffffff" stroke="#4f46e5" stroke-width="3"/><circle cx="964.6" cy="141.6" r="4.5" fill="#ffffff" stroke="#4f46e5" stroke-width="3"/><circle cx="973.6" cy="87.8" r="4.5" fill="#ffffff" stroke="#4f46e5" stroke-width="3"/><circle cx="982.5" cy="213.3" r="4.5" fill="#ffffff" stroke="#4f46e5" stroke-width="3"/><circle cx="991.5" cy="222.2" r="4.5" fill="#ffffff" stroke="#4f46e5" stroke-width="3"/><circle cx="1000.4" cy="168.5" r="4.5" fill="#ffffff" stroke="#4f46e5" stroke-width="3"/><circle cx="1009.4" cy="150.6" r="4.5" fill="#ffffff" stroke="#4f46e5" stroke-width="3"/><circle cx="1018.3" cy="267.0" r="4.5" fill="#ffffff" stroke="#4f46e5" stroke-width="3"/><circle cx="1027.3" cy="132.6" r="4.5" fill="#ffffff" stroke="#4f46e5" stroke-width="3"/><circle cx="1036.2" cy="132.6" r="4.5" fill="#ffffff" stroke="#4f46e5" stroke-width="3"/><circle cx="1045.2" cy="61.0" r="4.5" fill="#ffffff" stroke="#4f46e5" stroke-width="3"/><circle cx="1054.1" cy="141.6" r="4.5" fill="#ffffff" stroke="#4f46e5" stroke-width="3"/><circle cx="1063.1" cy="123.7" r="4.5" fill="#ffffff" stroke="#4f46e5" stroke-width="3"/><circle cx="1072.0" cy="267.0" r="4.5" fill="#ffffff" stroke="#4f46e5" stroke-width="3"/>
  <text x="52.0" y="322" fill="#6b7280" font-size="12" text-anchor="start" font-family="system-ui,-apple-system,sans-serif">2025-05-29</text><text x="195.2" y="322" fill="#6b7280" font-size="12" text-anchor="middle" font-family="system-ui,-apple-system,sans-serif">2025-06-30</text><text x="347.3" y="322" fill="#6b7280" font-size="12" text-anchor="middle" font-family="system-ui,-apple-system,sans-serif">2025-08-11</text><text x="490.4" y="322" fill="#6b7280" font-size="12" text-anchor="middle" font-family="system-ui,-apple-system,sans-serif">2026-04-23</text><text x="633.6" y="322" fill="#6b7280" font-size="12" text-anchor="middle" font-family="system-ui,-apple-system,sans-serif">2026-05-26</text><text x="776.7" y="322" fill="#6b7280" font-size="12" text-anchor="middle" font-family="system-ui,-apple-system,sans-serif">2026-06-29</text><text x="928.8" y="322" fill="#6b7280" font-size="12" text-anchor="middle" font-family="system-ui,-apple-system,sans-serif">2026-08-27</text><text x="1072.0" y="322" fill="#6b7280" font-size="12" text-anchor="end" font-family="system-ui,-apple-system,sans-serif">2026-09-24</text>
</svg>