<svg xmlns="http://www.w3.org/2000/svg" viewBox="0 0 1100 340" width="100%" role="img" aria-label="Python Ranking">
  <rect width="1100" height="340" fill="#161b22" stroke="#30363d" rx="10"/>
  <text x="20" y="30" fill="#e6edf3" font-size="18" font-weight="700" font-family="system-ui,-apple-system,sans-serif">Python Ranking</text>
  <line x1="52" y1="96.80000000000001" x2="1072" y2="96.80000000000001" stroke="#30363d" stroke-dasharray="5 5" stroke-width="1"/><line x1="52" y1="141.60000000000002" x2="1072" y2="141.60000000000002" stroke="#30363d" stroke-dasharray="5 5" stroke-width="1"/><line x1="52" y1="186.4" x2="1072" y2="186.4" stroke="#30363d" stroke-dasharray="5 5" stroke-width="1"/><line x1="52" y1="231.20000000000002" x2="1072" y2="231.20000000000002" stroke="#30363d" stroke-dasharray="5 5" stroke-width="1"/><line x1="52" y1="276" x2="1072" y2="276" stroke="#30363d" stroke-dasharray="5 5" stroke-width="1"/>
  <text x="42" y="56" fill="#8b949e" font-size="12" text-anchor="end" font-family="system-ui,-apple-system,sans-serif">0</text><text x="42" y="100.80000000000001" fill="#8b949e" font-size="12" text-anchor="end" font-family="system-ui,-apple-system,sans-serif">5</text><text x="42" y="145.60000000000002" fill="#8b949e" font-size="12" text-anchor="end" font-family="system-ui,-apple-system,sans-serif">10</text><text x="42" y="190.4" fill="#8b949e" font-size="12" text-anchor="end" font-family="system-ui,-apple-system,sans-serif">15</text><text x="42" y="235.20000000000002" fill="#8b949e" font-size="12" text-anchor="end" font-family="system-ui,-apple-system,sans-serif">20</text><text x="42" y="280" fill="#8b949e" font-size="12" text-anchor="end" font-family="system-ui,-apple-system,sans-serif">25</text>
  <path d="M52.0,78.9 L61.1,78.9 L70.2,61.0 L79.3,61.0 L88.4,61.0 L97.5,69.9 L106.6,87.8 L115.8,69.9 L124.9,141.6 L134.0,114.7 L143.1,240.2 L152.2,132.6 L161.3,78.9 L170.4,123.7 L179.5,159.5 L188.6,61.0 L197.7,61.0 L206.8,69.9 L215.9,249.1 L225.0,132.6 L234.1,61.0 L243.3,61.0 L252.4,69.9 L261.5,61.0 L270.6,61.0 L279.7,61.0 L288.8,69.9 L297.9,78.9 L307.0,168.5 L316.1,61.0 L325.2,61.0 L334.3,61.0 L343.4,195.4 L352.5,213.3 L361.6,240.2 L370.8,114.7 L379.9,231.2 L389.0,213.3 L398.1,267.0 L407.2,150.6 L416.3,231.2 L425.4,61.0 L434.5,61.0 L443.6,123.7 L452.7,186.4 L461.8,168.5 L470.9,276.0 L480.0,96.8 L489.1,132.6 L498.3,159.5 L507.4,168.5 L516.5,132.6 L525.6,78.9 L534.7,96.8 L543.8,78.9 L552.9,96.8 L562.0,204.3 L571.1,213.3 L580.2,87.8 L589.3,168.5 L598.4,96.8 L607.5,168.5 L616.6,249.1 L625.8,87.8 L634.9,78.9 L644.0,168.5 L653.1,69.9 L662.2,69.9 L671.3,105.8 L680.4,123.7 L689.5,159.5 L698.6,78.9 L707.7,141.6 L716.8,186.4 L725.9,141.6 L735.0,78.9 L744.1,78.9 L753.3,69.9 L762.4,114.7 L771.5,195.4 L780.6,69.9 L789.7,231.2 L798.8,186.4 L807.9,213.3 L817.0,204.3 L826.1,276.0 L835.2,240.2 L844.3,87.8 L853.4,132.6 L862.5,222.2 L871.6,195.4 L880.8,96.8 L889.9,69.9 L899.0,132.6 L908.1,132.6 L917.2,132.6 L926.3,186.4 L935.4,96.8 L944.5,267.0 L953.6,61.0 L962.7,61.0 L971.8,105.8 L980.9,141.6 L990.0,87.8 L999.1,213.3 L1008.3,222.2 L1017.4,168.5 L1026.5,150.6 L1035.6,267.0 L1044.7,132.6 L1053.8,132.6 L1062.9,61.0 L1072.0,61.0" fill="none" stroke="#818cf8" stroke-width="3.5" stroke-linecap="round" stroke-linejoin="round"/>
  <circle cx="52.0" cy="78.9" r="4.5" fill="#161b22" stroke="#818cf8" stroke-width="3"/><circle cx="61.1" cy="78.9" r="4.5" fill="#161b22" stroke="#818cf8" stroke-width="3"/><circle cx="70.2" cy="61.0" r="4.5" fill="#161b22" stroke="#818cf8" stroke-width="3"/><circle cx="79.3" cy="61.0" r="4.5" fill="#161b22" stroke="#818cf8" stroke-width="3"/><circle cx="88.4" cy="61.0" r="4.5" fill="#161b22" stroke="#818cf8" stroke-width="3"/><circle cx="97.5" cy="69.9" r="4.5" fill="#161b22" stroke="#818cf8" stroke-width="3"/><circle cx="106.6" cy="87.8" r="4.5" fill="#161b22" stroke="#818cf8" stroke-width="3"/><circle cx="115.8" cy="69.9" r="4.5" fill="#161b22" stroke="#818cf8" stroke-width="3"/><circle cx="124.9" cy="141.6" r="4.5" fill="#161b22" stroke="#818cf8" stroke-width="3"/><circle cx="134.0" cy="114.7" r="4.5" fill="#161b22" stroke="#818cf8" stroke-width="3"/><circle cx="143.1" cy="240.2" r="4.5" fill="#161b22" stroke="#818cf8" stroke-width="3"/><circle cx="152.2" cy="132.6" r="4.5" fill="#161b22" stroke="#818cf8" stroke-width="3"/><circle cx="161.3" cy="78.9" r="4.5" fill="#161b22" stroke="#818cf8" stroke-width="3"/><circle cx="170.4" cy="123.7" r="4.5" fill="#161b22" stroke="#818cf8" stroke-width="3"/><circle cx="179.5" cy="159.5" r="4.5" fill="#161b22" stroke="#818cf8" stroke-width="3"/><circle cx="188.6" cy="61.0" r="4.5" fill="#161b22" stroke="#818cf8" stroke-width="3"/><circle cx="197.7" cy="61.0" r="4.5" fill="#161b22" stroke="#818cf8" stroke-width="3"/><circle cx="206.8" cy="69.9" r="4.5" fill="#161b22" stroke="#818cf8" stroke-width="3"/><circle cx="215.9" cy="249.1" r="4.5" fill="#161b22" stroke="#818cf8" stroke-width="3"/><circle cx="225.0" cy="132.6" r="4.5" fill="#161b22" stroke="#818cf8" stroke-width="3"/><circle cx="234.1" cy="61.0" r="4.5" fill="#161b22" stroke="#818cf8" stroke-width="3"/><circle cx="243.3" cy="61.0" r="4.5" fill="#161b22" stroke="#818cf8" stroke-width="3"/><circle cx="252.4" cy="69.9" r="4.5" fill="#161b22" stroke="#818cf8" stroke-width="3"/><circle cx="261.5" cy="61.0" r="4.5" fill="#161b22" stroke="#818cf8" stroke-width="3"/><circle cx="270.6" cy="61.0" r="4.5" fill="#161b22" stroke="#818cf8" stroke-width="3"/><circle cx="279.7" cy="61.0" r="4.5" fill="#161b22" stroke="#818cf8" stroke-width="3"/><circle cx="288.8" cy="69.9" r="4.5" fill="#161b22" stroke="#818cf8" stroke-width="3"/><circle cx="297.9" cy="78.9" r="4.5" fill="#161b22" stroke="#818cf8" stroke-width="3"/><circle cx="307.0" cy="168.5" r="4.5" fill="#161b22" stroke="#818cf8" stroke-width="3"/><circle cx="316.1" cy="61.0" r="4.5" fill="#161b22" stroke="#818cf8" stroke-width="3"/><circle cx="325.2" cy="61.0" r="4.5" fill="#161b22" stroke="#818cf8" stroke-width="3"/><circle cx="334.3" cy="61.0" r="4.5" fill="#161b22" stroke="#818cf8" stroke-width="3"/><circle cx="343.4" cy="195.4" r="4.5" fill="#161b22" stroke="#818cf8" stroke-width="3"/><circle cx="352.5" cy="213.3" r="4.5" fill="#161b22" stroke="#818cf8" stroke-width="3"/><circle cx="361.6" cy="240.2" r="4.5" fill="#161b22" stroke="#818cf8" stroke-width="3"/><circle cx="370.8" cy="114.7" r="4.5" fill="#161b22" stroke="#818cf8" stroke-width="3"/><circle cx="379.9" cy="231.2" r="4.5" fill="#161b22" stroke="#818cf8" stroke-width="3"/><circle cx="389.0" cy="213.3" r="4.5" fill="#161b22" stroke="#818cf8" stroke-width="3"/><circle cx="398.1" cy="267.0" r="4.5" fill="#161b22" stroke="#818cf8" stroke-width="3"/><circle cx="407.2" cy="150.6" r="4.5" fill="#161b22" stroke="#818cf8" stroke-width="3"/><circle cx="416.3" cy="231.2" r="4.5" fill="#161b22" stroke="#818cf8" stroke-width="3"/><circle cx="425.4" cy="61.0" r="4.5" fill="#161b22" stroke="#818cf8" stroke-width="3"/><circle cx="434.5" cy="61.0" r="4.5" fill="#161b22" stroke="#818cf8" stroke-width="3"/><circle cx="443.6" cy="123.7" r="4.5" fill="#161b22" stroke="#818cf8" stroke-width="3"/><circle cx="452.7" cy="186.4" r="4.5" fill="#161b22" stroke="#818cf8" stroke-width="3"/><circle cx="461.8" cy="168.5" r="4.5" fill="#161b22" stroke="#818cf8" stroke-width="3"/><circle cx="470.9" cy="276.0" r="4.5" fill="#161b22" stroke="#818cf8" stroke-width="3"/><circle cx="480.0" cy="96.8" r="4.5" fill="#161b22" stroke="#818cf8" stroke-width="3"/><circle cx="489.1" cy="132.6" r="4.5" fill="#161b22" stroke="#818cf8" stroke-width="3"/><circle cx="498.3" cy="159.5" r="4.5" fill="#161b22" stroke="#818cf8" stroke-width="3"/><circle cx="507.4" cy="168.5" r="4.5" fill="#161b22" stroke="#818cf8" stroke-width="3"/><circle cx="516.5" cy="132.6" r="4.5" fill="#161b22" stroke="#818cf8" stroke-width="3"/><circle cx="525.6" cy="78.9" r="4.5" fill="#161b22" stroke="#818cf8" stroke-width="3"/><circle cx="534.7" cy="96.8" r="4.5" fill="#161b22" stroke="#818cf8" stroke-width="3"/><circle cx="543.8" cy="78.9" r="4.5" fill="#161b22" stroke="#818cf8" stroke-width="3"/><circle cx="552.9" cy="96.8" r="4.5" fill="#161b22" stroke="#818cf8" stroke-width="3"/><circle cx="562.0" cy="204.3" r="4.5" fill="#161b22" stroke="#818cf8" stroke-width="3"/><circle cx="571.1" cy="213.3" r="4.5" fill="#161b22" stroke="#818cf8" stroke-width="3"/><circle cx="580.2" cy="87.8" r="4.5" fill="#161b22" stroke="#818cf8" stroke-width="3"/><circle cx="589.3" cy="168.5" r="4.5" fill="#161b22" stroke="#818cf8" stroke-width="3"/><circle cx="598.4" cy="96.8" r="4.5" fill="#161b22" stroke="#818cf8" stroke-width="3"/><circle cx="607.5" cy="168.5" r="4.5" fill="#161b22" stroke="#818cf8" stroke-width="3"/><circle cx="616.6" cy="249.1" r="4.5" fill="#161b22" stroke="#818cf8" stroke-width="3"/><circle cx="625.8" cy="87.8" r="4.5" fill="#161b22" stroke="#818cf8" stroke-width="3"/><circle cx="634.9" cy="78.9" r="4.5" fill="#161b22" stroke="#818cf8" stroke-width="3"/><circle cx="644.0" cy="168.5" r="4.5" fill="#161b22" stroke="#818cf8" stroke-width="3"/><circle cx="653.1" cy="69.9" r="4.5" fill="#161b22" stroke="#818cf8" stroke-width="3"/><circle cx="662.2" cy="69.9" r="4.5" fill="#161b22" stroke="#818cf8" stroke-width="3"/><circle cx="671.3" cy="105.8" r="4.5" fill="#161b22" stroke="#818cf8" stroke-width="3"/><circle cx="680.4" cy="123.7" r="4.5" fill="#161b22" stroke="#818cf8" stroke-width="3"/><circle cx="689.5" cy="159.5" r="4.5" fill="#161b22" stroke="#818cf8" stroke-width="3"/><circle cx="698.6" cy="78.9" r="4.5" fill="#161b22" stroke="#818cf8" stroke-width="3"/><circle cx="707.7" cy="141.6" r="4.5" fill="#161b22" stroke="#818cf8" stroke-width="3"/><circle cx="716.8" cy="186.4" r="4.5" fill="#161b22" stroke="#818cf8" stroke-width="3"/><circle cx="725.9" cy="141.6" r="4.5" fill="#161b22" stroke="#818cf8" stroke-width="3"/><circle cx="735.0" cy="78.9" r="4.5" fill="#161b22" stroke="#818cf8" stroke-width="3"/><circle cx="744.1" cy="78.9" r="4.5" fill="#161b22" stroke="#818cf8" stroke-width="3"/><circle cx="753.3" cy="69.9" r="4.5" fill="#161b22" stroke="#818cf8" stroke-width="3"/><circle cx="762.4" cy="114.7" r="4.5" fill="#161b22" stroke="#818cf8" stroke-width="3"/><circle cx="771.5" cy="195.4" r="4.5" fill="#161b22" stroke="#818cf8" stroke-width="3"/><circle cx="780.6" cy="69.9" r="4.5" fill="#161b22" stroke="#818cf8" stroke-width="3"/><circle cx="789.7" cy="231.2" r="4.5" fill="#161b22" stroke="#818cf8" stroke-width="3"/><circle cx="798.8" cy="186.4" r="4.5" fill="#161b22" stroke="#818cf8" stroke-width="3"/><circle cx="807.9" cy="213.3" r="4.5" fill="#161b22" stroke="#818cf8" stroke-width="3"/><circle cx="817.0" cy="204.3" r="4.5" fill="#161b22" stroke="#818cf8" stroke-width="3"/><circle cx="826.1" cy="276.0" r="4.5" fill="#161b22" stroke="#818cf8" stroke-width="3"/><circle cx="835.2" cy="240.2" r="4.5" fill="#161b22" stroke="#818cf8" stroke-width="3"/><circle cx="844.3" cy="87.8" r="4.5" fill="#161b22" stroke="#818cf8" stroke-width="3"/><circle cx="853.4" cy="132.6" r="4.5" fill="#161b22" stroke="#818cf8" stroke-width="3"/><circle cx="862.5" cy="222.2" r="4.5" fill="#161b22" stroke="#818cf8" stroke-width="3"/><circle cx="871.6" cy="195.4" r="4.5" fill="#161b22" stroke="#818cf8" stroke-width="3"/><circle cx="880.8" cy="96.8" r="4.5" fill="#161b22" stroke="#818cf8" stroke-width="3"/><circle cx="889.9" cy="69.9" r="4.5" fill="#161b22" stroke="#818cf8" stroke-width="3"/><circle cx="899.0" cy="132.6" r="4.5" fill="#161b22" stroke="#818cf8" stroke-width="3"/><circle cx="908.1" cy="132.6" r="4.5" fill="#161b22" stroke="#818cf8" stroke-width="3"/><circle cx="917.2" cy="132.6" r="4.5" fill="#161b22" stroke="#818cf8" stroke-width="3"/><circle cx="926.3" cy="186.4" r="4.5" fill="#161b22" stroke="#818cf8" stroke-width="3"/><circle cx="935.4" cy="96.8" r="4.5" fill="#161b22" stroke="#818cf8" stroke-width="3"/><circle cx="944.5" cy="267.0" r="4.5" fill="#161b22" stroke="#818cf8" stroke-width="3"/><circle cx="953.6" cy="61.0" r="4.5" fill="#161b22" stroke="#818cf8" stroke-width="3"/><circle cx="962.7" cy="61.0" r="4.5" fill="#161b22" stroke="#818cf8" stroke-width="3"/><circle cx="971.8" cy="105.8" r="4.5" fill="#161b22" stroke="#818cf8" stroke-width="3"/><circle cx="980.9" cy="141.6" r="4.5" fill="#161b22" stroke="#818cf8" stroke-width="3"/><circle cx="990.0" cy="87.8" r="4.5" fill="#161b22" stroke="#818cf8" stroke-width="3"/><circle cx="999.1" cy="213.3" r="4.5" fill="#161b22" stroke="#818cf8" stroke-width="3"/><circle cx="1008.3" cy="222.2" r="4.5" fill="#161b22" stroke="#818cf8" stroke-width="3"/><circle cx="1017.4" cy="168.5" r="4.5" fill="#161b22" stroke="#818cf8" stroke-width="3"/><circle cx="1026.5" cy="150.6" r="4.5" fill="#161b22" stroke="#818cf8" stroke-width="3"/><circle cx="1035.6" cy="267.0" r="4.5" fill="#161b22" stroke="#818cf8" stroke-width="3"/><circle cx="1044.7" cy="132.6" r="4.5" fill="#161b22" stroke="#818cf8" stroke-width="3"/><circle cx="1053.8" cy="132.6" r="4.5" fill="#161b22" stroke="#818cf8" stroke-width="3"/><circle cx="1062.9" cy="61.0" r="4.5" fill="#161b22" stroke="#818cf8" stroke-width="3"/><circle cx="1072.0" cy="61.0" r="4.5" fill="#161b22" stroke="#818cf8" stroke-width="3"/>
  <text x="52.0" y="322" fill="#8b949e" font-size="12" text-anchor="start" font-family="system-ui,-apple-system,sans-serif">2025-05-29</text><text x="197.7" y="322" fill="#8b949e" font-size="12" text-anchor="middle" font-family="system-ui,-apple-system,sans-serif">2025-06-30</text><text x="343.4" y="322" fill="#8b949e" font-size="12" text-anchor="middle" font-family="system-ui,-apple-system,sans-serif">2025-07-30</text><text x="489.1" y="322" fill="#8b949e" font-size="12" text-anchor="middle" font-family="system-ui,-apple-system,sans-serif">2026-04-19</text><text x="634.9" y="322" fill="#8b949e" font-size="12" text-anchor="middle" font-family="system-ui,-apple-system,sans-serif">2026-05-25</text><text x="780.6" y="322" fill="#8b949e" font-size="12" text-anchor="middle" font-family="system-ui,-apple-system,sans-serif">2026-06-28</text><text x="926.3" y="322" fill="#8b949e" font-size="12" text-anchor="middle" font-family="system-ui,-apple-system,sans-serif">2026-08-24</text><text x="1072.0" y="322" fill="#8b949e" font-size="12" text-anchor="end" font-family="system-ui,-apple-system,sans-serif">2026-09-19</text>
</svg>