<svg xmlns="http://www.w3.org/2000/svg" viewBox="0 0 1100 340" width="100%" role="img" aria-label="Python Ranking">
  <rect width="1100" height="340" fill="#161b22" stroke="#30363d" rx="10"/>
  <text x="20" y="30" fill="#e6edf3" font-size="18" font-weight="700" font-family="system-ui,-apple-system,sans-serif">Python Ranking</text>
  <line x1="52" y1="96.80000000000001" x2="1072" y2="96.80000000000001" stroke="#30363d" stroke-dasharray="5 5" stroke-width="1"/><line x1="52" y1="141.60000000000002" x2="1072" y2="141.60000000000002" stroke="#30363d" stroke-dasharray="5 5" stroke-width="1"/><line x1="52" y1="186.4" x2="1072" y2="186.4" stroke="#30363d" stroke-dasharray="5 5" stroke-width="1"/><line x1="52" y1="231.20000000000002" x2="1072" y2="231.20000000000002" stroke="#30363d" stroke-dasharray="5 5" stroke-width="1"/><line x1="52" y1="276" x2="1072" y2="276" stroke="#30363d" stroke-dasharray="5 5" stroke-width="1"/>
  <text x="42" y="56" fill="#8b949e" font-size="12" text-anchor="end" font-family="system-ui,-apple-system,sans-serif">0</text><text x="42" y="100.80000000000001" fill="#8b949e" font-size="12" text-anchor="end" font-family="system-ui,-apple-system,sans-serif">5</text><text x="42" y="145.60000000000002" fill="#8b949e" font-size="12" text-anchor="end" font-family="system-ui,-apple-system,sans-serif">10</text><text x="42" y="190.4" fill="#8b949e" font-size="12" text-anchor="end" font-family="system-ui,-apple-system,sans-serif">15</text><text x="42" y="235.20000000000002" fill="#8b949e" font-size="12" text-anchor="end" font-family="system-ui,-apple-system,sans-serif">20</text><text x="42" y="280" fill="#8b949e" font-size="12" text-anchor="end" font-family="system-ui,-apple-system,sans-serif">25</text>
  <path d="M52.0,78.9 L63.9,78.9 L75.7,61.0 L87.6,61.0 L99.4,61.0 L111.3,69.9 L123.2,87.8 L135.0,69.9 L146.9,141.6 L158.7,114.7 L170.6,240.2 L182.5,132.6 L194.3,78.9 L206.2,123.7 L218.0,159.5 L229.9,61.0 L241.8,61.0 L253.6,69.9 L265.5,249.1 L277.3,132.6 L289.2,61.0 L301.1,61.0 L312.9,69.9 L324.8,61.0 L336.7,61.0 L348.5,61.0 L360.4,69.9 L372.2,78.9 L384.1,168.5 L396.0,61.0 L407.8,61.0 L419.7,61.0 L431.5,195.4 L443.4,213.3 L455.3,240.2 L467.1,114.7 L479.0,231.2 L490.8,213.3 L502.7,267.0 L514.6,150.6 L526.4,231.2 L538.3,61.0 L550.1,61.0 L562.0,123.7 L573.9,186.4 L585.7,168.5 L597.6,276.0 L609.4,96.8 L621.3,132.6 L633.2,159.5 L645.0,168.5 L656.9,132.6 L668.7,78.9 L680.6,96.8 L692.5,78.9 L704.3,96.8 L716.2,204.3 L728.0,213.3 L739.9,87.8 L751.8,168.5 L763.6,96.8 L775.5,168.5 L787.3,249.1 L799.2,87.8 L811.1,78.9 L822.9,168.5 L834.8,69.9 L846.7,69.9 L858.5,105.8 L870.4,123.7 L882.2,159.5 L894.1,78.9 L906.0,141.6 L917.8,186.4 L929.7,141.6 L941.5,78.9 L953.4,78.9 L965.3,69.9 L977.1,114.7 L989.0,195.4 L1000.8,69.9 L1012.7,231.2 L1024.6,186.4 L1036.4,213.3 L1048.3,204.3 L1060.1,276.0 L1072.0,240.2" fill="none" stroke="#818cf8" stroke-width="3.5" stroke-linecap="round" stroke-linejoin="round"/>
  <circle cx="52.0" cy="78.9" r="4.5" fill="#161b22" stroke="#818cf8" stroke-width="3"/><circle cx="63.9" cy="78.9" r="4.5" fill="#161b22" stroke="#818cf8" stroke-width="3"/><circle cx="75.7" cy="61.0" r="4.5" fill="#161b22" stroke="#818cf8" stroke-width="3"/><circle cx="87.6" cy="61.0" r="4.5" fill="#161b22" stroke="#818cf8" stroke-width="3"/><circle cx="99.4" cy="61.0" r="4.5" fill="#161b22" stroke="#818cf8" stroke-width="3"/><circle cx="111.3" cy="69.9" r="4.5" fill="#161b22" stroke="#818cf8" stroke-width="3"/><circle cx="123.2" cy="87.8" r="4.5" fill="#161b22" stroke="#818cf8" stroke-width="3"/><circle cx="135.0" cy="69.9" r="4.5" fill="#161b22" stroke="#818cf8" stroke-width="3"/><circle cx="146.9" cy="141.6" r="4.5" fill="#161b22" stroke="#818cf8" stroke-width="3"/><circle cx="158.7" cy="114.7" r="4.5" fill="#161b22" stroke="#818cf8" stroke-width="3"/><circle cx="170.6" cy="240.2" r="4.5" fill="#161b22" stroke="#818cf8" stroke-width="3"/><circle cx="182.5" cy="132.6" r="4.5" fill="#161b22" stroke="#818cf8" stroke-width="3"/><circle cx="194.3" cy="78.9" r="4.5" fill="#161b22" stroke="#818cf8" stroke-width="3"/><circle cx="206.2" cy="123.7" r="4.5" fill="#161b22" stroke="#818cf8" stroke-width="3"/><circle cx="218.0" cy="159.5" r="4.5" fill="#161b22" stroke="#818cf8" stroke-width="3"/><circle cx="229.9" cy="61.0" r="4.5" fill="#161b22" stroke="#818cf8" stroke-width="3"/><circle cx="241.8" cy="61.0" r="4.5" fill="#161b22" stroke="#818cf8" stroke-width="3"/><circle cx="253.6" cy="69.9" r="4.5" fill="#161b22" stroke="#818cf8" stroke-width="3"/><circle cx="265.5" cy="249.1" r="4.5" fill="#161b22" stroke="#818cf8" stroke-width="3"/><circle cx="277.3" cy="132.6" r="4.5" fill="#161b22" stroke="#818cf8" stroke-width="3"/><circle cx="289.2" cy="61.0" r="4.5" fill="#161b22" stroke="#818cf8" stroke-width="3"/><circle cx="301.1" cy="61.0" r="4.5" fill="#161b22" stroke="#818cf8" stroke-width="3"/><circle cx="312.9" cy="69.9" r="4.5" fill="#161b22" stroke="#818cf8" stroke-width="3"/><circle cx="324.8" cy="61.0" r="4.5" fill="#161b22" stroke="#818cf8" stroke-width="3"/><circle cx="336.7" cy="61.0" r="4.5" fill="#161b22" stroke="#818cf8" stroke-width="3"/><circle cx="348.5" cy="61.0" r="4.5" fill="#161b22" stroke="#818cf8" stroke-width="3"/><circle cx="360.4" cy="69.9" r="4.5" fill="#161b22" stroke="#818cf8" stroke-width="3"/><circle cx="372.2" cy="78.9" r="4.5" fill="#161b22" stroke="#818cf8" stroke-width="3"/><circle cx="384.1" cy="168.5" r="4.5" fill="#161b22" stroke="#818cf8" stroke-width="3"/><circle cx="396.0" cy="61.0" r="4.5" fill="#161b22" stroke="#818cf8" stroke-width="3"/><circle cx="407.8" cy="61.0" r="4.5" fill="#161b22" stroke="#818cf8" stroke-width="3"/><circle cx="419.7" cy="61.0" r="4.5" fill="#161b22" stroke="#818cf8" stroke-width="3"/><circle cx="431.5" cy="195.4" r="4.5" fill="#161b22" stroke="#818cf8" stroke-width="3"/><circle cx="443.4" cy="213.3" r="4.5" fill="#161b22" stroke="#818cf8" stroke-width="3"/><circle cx="455.3" cy="240.2" r="4.5" fill="#161b22" stroke="#818cf8" stroke-width="3"/><circle cx="467.1" cy="114.7" r="4.5" fill="#161b22" stroke="#818cf8" stroke-width="3"/><circle cx="479.0" cy="231.2" r="4.5" fill="#161b22" stroke="#818cf8" stroke-width="3"/><circle cx="490.8" cy="213.3" r="4.5" fill="#161b22" stroke="#818cf8" stroke-width="3"/><circle cx="502.7" cy="267.0" r="4.5" fill="#161b22" stroke="#818cf8" stroke-width="3"/><circle cx="514.6" cy="150.6" r="4.5" fill="#161b22" stroke="#818cf8" stroke-width="3"/><circle cx="526.4" cy="231.2" r="4.5" fill="#161b22" stroke="#818cf8" stroke-width="3"/><circle cx="538.3" cy="61.0" r="4.5" fill="#161b22" stroke="#818cf8" stroke-width="3"/><circle cx="550.1" cy="61.0" r="4.5" fill="#161b22" stroke="#818cf8" stroke-width="3"/><circle cx="562.0" cy="123.7" r="4.5" fill="#161b22" stroke="#818cf8" stroke-width="3"/><circle cx="573.9" cy="186.4" r="4.5" fill="#161b22" stroke="#818cf8" stroke-width="3"/><circle cx="585.7" cy="168.5" r="4.5" fill="#161b22" stroke="#818cf8" stroke-width="3"/><circle cx="597.6" cy="276.0" r="4.5" fill="#161b22" stroke="#818cf8" stroke-width="3"/><circle cx="609.4" cy="96.8" r="4.5" fill="#161b22" stroke="#818cf8" stroke-width="3"/><circle cx="621.3" cy="132.6" r="4.5" fill="#161b22" stroke="#818cf8" stroke-width="3"/><circle cx="633.2" cy="159.5" r="4.5" fill="#161b22" stroke="#818cf8" stroke-width="3"/><circle cx="645.0" cy="168.5" r="4.5" fill="#161b22" stroke="#818cf8" stroke-width="3"/><circle cx="656.9" cy="132.6" r="4.5" fill="#161b22" stroke="#818cf8" stroke-width="3"/><circle cx="668.7" cy="78.9" r="4.5" fill="#161b22" stroke="#818cf8" stroke-width="3"/><circle cx="680.6" cy="96.8" r="4.5" fill="#161b22" stroke="#818cf8" stroke-width="3"/><circle cx="692.5" cy="78.9" r="4.5" fill="#161b22" stroke="#818cf8" stroke-width="3"/><circle cx="704.3" cy="96.8" r="4.5" fill="#161b22" stroke="#818cf8" stroke-width="3"/><circle cx="716.2" cy="204.3" r="4.5" fill="#161b22" stroke="#818cf8" stroke-width="3"/><circle cx="728.0" cy="213.3" r="4.5" fill="#161b22" stroke="#818cf8" stroke-width="3"/><circle cx="739.9" cy="87.8" r="4.5" fill="#161b22" stroke="#818cf8" stroke-width="3"/><circle cx="751.8" cy="168.5" r="4.5" fill="#161b22" stroke="#818cf8" stroke-width="3"/><circle cx="763.6" cy="96.8" r="4.5" fill="#161b22" stroke="#818cf8" stroke-width="3"/><circle cx="775.5" cy="168.5" r="4.5" fill="#161b22" stroke="#818cf8" stroke-width="3"/><circle cx="787.3" cy="249.1" r="4.5" fill="#161b22" stroke="#818cf8" stroke-width="3"/><circle cx="799.2" cy="87.8" r="4.5" fill="#161b22" stroke="#818cf8" stroke-width="3"/><circle cx="811.1" cy="78.9" r="4.5" fill="#161b22" stroke="#818cf8" stroke-width="3"/><circle cx="822.9" cy="168.5" r="4.5" fill="#161b22" stroke="#818cf8" stroke-width="3"/><circle cx="834.8" cy="69.9" r="4.5" fill="#161b22" stroke="#818cf8" stroke-width="3"/><circle cx="846.7" cy="69.9" r="4.5" fill="#161b22" stroke="#818cf8" stroke-width="3"/><circle cx="858.5" cy="105.8" r="4.5" fill="#161b22" stroke="#818cf8" stroke-width="3"/><circle cx="870.4" cy="123.7" r="4.5" fill="#161b22" stroke="#818cf8" stroke-width="3"/><circle cx="882.2" cy="159.5" r="4.5" fill="#161b22" stroke="#818cf8" stroke-width="3"/><circle cx="894.1" cy="78.9" r="4.5" fill="#161b22" stroke="#818cf8" stroke-width="3"/><circle cx="906.0" cy="141.6" r="4.5" fill="#161b22" stroke="#818cf8" stroke-width="3"/><circle cx="917.8" cy="186.4" r="4.5" fill="#161b22" stroke="#818cf8" stroke-width="3"/><circle cx="929.7" cy="141.6" r="4.5" fill="#161b22" stroke="#818cf8" stroke-width="3"/><circle cx="941.5" cy="78.9" r="4.5" fill="#161b22" stroke="#818cf8" stroke-width="3"/><circle cx="953.4" cy="78.9" r="4.5" fill="#161b22" stroke="#818cf8" stroke-width="3"/><circle cx="965.3" cy="69.9" r="4.5" fill="#161b22" stroke="#818cf8" stroke-width="3"/><circle cx="977.1" cy="114.7" r="4.5" fill="#161b22" stroke="#818cf8" stroke-width="3"/><circle cx="989.0" cy="195.4" r="4.5" fill="#161b22" stroke="#818cf8" stroke-width="3"/><circle cx="1000.8" cy="69.9" r="4.5" fill="#161b22" stroke="#818cf8" stroke-width="3"/><circle cx="1012.7" cy="231.2" r="4.5" fill="#161b22" stroke="#818cf8" stroke-width="3"/><circle cx="1024.6" cy="186.4" r="4.5" fill="#161b22" stroke="#818cf8" stroke-width="3"/><circle cx="1036.4" cy="213.3" r="4.5" fill="#161b22" stroke="#818cf8" stroke-width="3"/><circle cx="1048.3" cy="204.3" r="4.5" fill="#161b22" stroke="#818cf8" stroke-width="3"/><circle cx="1060.1" cy="276.0" r="4.5" fill="#161b22" stroke="#818cf8" stroke-width="3"/><circle cx="1072.0" cy="240.2" r="4.5" fill="#161b22" stroke="#818cf8" stroke-width="3"/>
  <text x="52.0" y="322" fill="#8b949e" font-size="12" text-anchor="start" font-family="system-ui,-apple-system,sans-serif">2025-05-29</text><text x="194.3" y="322" fill="#8b949e" font-size="12" text-anchor="middle" font-family="system-ui,-apple-system,sans-serif">2025-06-22</text><text x="348.5" y="322" fill="#8b949e" font-size="12" text-anchor="middle" font-family="system-ui,-apple-system,sans-serif">2025-07-13</text><text x="490.8" y="322" fill="#8b949e" font-size="12" text-anchor="middle" font-family="system-ui,-apple-system,sans-serif">2026-02-27</text><text x="633.2" y="322" fill="#8b949e" font-size="12" text-anchor="middle" font-family="system-ui,-apple-system,sans-serif">2026-04-23</text><text x="775.5" y="322" fill="#8b949e" font-size="12" text-anchor="middle" font-family="system-ui,-apple-system,sans-serif">2026-05-20</text><text x="929.7" y="322" fill="#8b949e" font-size="12" text-anchor="middle" font-family="system-ui,-apple-system,sans-serif">2026-06-20</text><text x="1072.0" y="322" fill="#8b949e" font-size="12" text-anchor="end" font-family="system-ui,-apple-system,sans-serif">2026-07-21</text>
</svg>