<svg xmlns="http://www.w3.org/2000/svg" viewBox="0 0 1100 340" width="100%" role="img" aria-label="Python Ranking">
  <rect width="1100" height="340" fill="#161b22" stroke="#30363d" rx="10"/>
  <text x="20" y="30" fill="#e6edf3" font-size="18" font-weight="700" font-family="system-ui,-apple-system,sans-serif">Python Ranking</text>
  <line x1="52" y1="96.80000000000001" x2="1072" y2="96.80000000000001" stroke="#30363d" stroke-dasharray="5 5" stroke-width="1"/><line x1="52" y1="141.60000000000002" x2="1072" y2="141.60000000000002" stroke="#30363d" stroke-dasharray="5 5" stroke-width="1"/><line x1="52" y1="186.4" x2="1072" y2="186.4" stroke="#30363d" stroke-dasharray="5 5" stroke-width="1"/><line x1="52" y1="231.20000000000002" x2="1072" y2="231.20000000000002" stroke="#30363d" stroke-dasharray="5 5" stroke-width="1"/><line x1="52" y1="276" x2="1072" y2="276" stroke="#30363d" stroke-dasharray="5 5" stroke-width="1"/>
  <text x="42" y="56" fill="#8b949e" font-size="12" text-anchor="end" font-family="system-ui,-apple-system,sans-serif">0</text><text x="42" y="100.80000000000001" fill="#8b949e" font-size="12" text-anchor="end" font-family="system-ui,-apple-system,sans-serif">5</text><text x="42" y="145.60000000000002" fill="#8b949e" font-size="12" text-anchor="end" font-family="system-ui,-apple-system,sans-serif">10</text><text x="42" y="190.4" fill="#8b949e" font-size="12" text-anchor="end" font-family="system-ui,-apple-system,sans-serif">15</text><text x="42" y="235.20000000000002" fill="#8b949e" font-size="12" text-anchor="end" font-family="system-ui,-apple-system,sans-serif">20</text><text x="42" y="280" fill="#8b949e" font-size="12" text-anchor="end" font-family="system-ui,-apple-system,sans-serif">25</text>
  <path d="M52.0,78.9 L61.6,78.9 L71.2,61.0 L80.9,61.0 L90.5,61.0 L100.1,69.9 L109.7,87.8 L119.4,69.9 L129.0,141.6 L138.6,114.7 L148.2,240.2 L157.8,132.6 L167.5,78.9 L177.1,123.7 L186.7,159.5 L196.3,61.0 L206.0,61.0 L215.6,69.9 L225.2,249.1 L234.8,132.6 L244.5,61.0 L254.1,61.0 L263.7,69.9 L273.3,61.0 L282.9,61.0 L292.6,61.0 L302.2,69.9 L311.8,78.9 L321.4,168.5 L331.1,61.0 L340.7,61.0 L350.3,61.0 L359.9,195.4 L369.5,213.3 L379.2,240.2 L388.8,114.7 L398.4,231.2 L408.0,213.3 L417.7,267.0 L427.3,150.6 L436.9,231.2 L446.5,61.0 L456.2,61.0 L465.8,123.7 L475.4,186.4 L485.0,168.5 L494.6,276.0 L504.3,96.8 L513.9,132.6 L523.5,159.5 L533.1,168.5 L542.8,132.6 L552.4,78.9 L562.0,96.8 L571.6,78.9 L581.2,96.8 L590.9,204.3 L600.5,213.3 L610.1,87.8 L619.7,168.5 L629.4,96.8 L639.0,168.5 L648.6,249.1 L658.2,87.8 L667.8,78.9 L677.5,168.5 L687.1,69.9 L696.7,69.9 L706.3,105.8 L716.0,123.7 L725.6,159.5 L735.2,78.9 L744.8,141.6 L754.5,186.4 L764.1,141.6 L773.7,78.9 L783.3,78.9 L792.9,69.9 L802.6,114.7 L812.2,195.4 L821.8,69.9 L831.4,231.2 L841.1,186.4 L850.7,213.3 L860.3,204.3 L869.9,276.0 L879.5,240.2 L889.2,87.8 L898.8,132.6 L908.4,222.2 L918.0,195.4 L927.7,96.8 L937.3,69.9 L946.9,132.6 L956.5,132.6 L966.2,132.6 L975.8,186.4 L985.4,96.8 L995.0,267.0 L1004.6,61.0 L1014.3,61.0 L1023.9,105.8 L1033.5,141.6 L1043.1,87.8 L1052.8,213.3 L1062.4,222.2 L1072.0,168.5" fill="none" stroke="#818cf8" stroke-width="3.5" stroke-linecap="round" stroke-linejoin="round"/>
  <circle cx="52.0" cy="78.9" r="4.5" fill="#161b22" stroke="#818cf8" stroke-width="3"/><circle cx="61.6" cy="78.9" r="4.5" fill="#161b22" stroke="#818cf8" stroke-width="3"/><circle cx="71.2" cy="61.0" r="4.5" fill="#161b22" stroke="#818cf8" stroke-width="3"/><circle cx="80.9" cy="61.0" r="4.5" fill="#161b22" stroke="#818cf8" stroke-width="3"/><circle cx="90.5" cy="61.0" r="4.5" fill="#161b22" stroke="#818cf8" stroke-width="3"/><circle cx="100.1" cy="69.9" r="4.5" fill="#161b22" stroke="#818cf8" stroke-width="3"/><circle cx="109.7" cy="87.8" r="4.5" fill="#161b22" stroke="#818cf8" stroke-width="3"/><circle cx="119.4" cy="69.9" r="4.5" fill="#161b22" stroke="#818cf8" stroke-width="3"/><circle cx="129.0" cy="141.6" r="4.5" fill="#161b22" stroke="#818cf8" stroke-width="3"/><circle cx="138.6" cy="114.7" r="4.5" fill="#161b22" stroke="#818cf8" stroke-width="3"/><circle cx="148.2" cy="240.2" r="4.5" fill="#161b22" stroke="#818cf8" stroke-width="3"/><circle cx="157.8" cy="132.6" r="4.5" fill="#161b22" stroke="#818cf8" stroke-width="3"/><circle cx="167.5" cy="78.9" r="4.5" fill="#161b22" stroke="#818cf8" stroke-width="3"/><circle cx="177.1" cy="123.7" r="4.5" fill="#161b22" stroke="#818cf8" stroke-width="3"/><circle cx="186.7" cy="159.5" r="4.5" fill="#161b22" stroke="#818cf8" stroke-width="3"/><circle cx="196.3" cy="61.0" r="4.5" fill="#161b22" stroke="#818cf8" stroke-width="3"/><circle cx="206.0" cy="61.0" r="4.5" fill="#161b22" stroke="#818cf8" stroke-width="3"/><circle cx="215.6" cy="69.9" r="4.5" fill="#161b22" stroke="#818cf8" stroke-width="3"/><circle cx="225.2" cy="249.1" r="4.5" fill="#161b22" stroke="#818cf8" stroke-width="3"/><circle cx="234.8" cy="132.6" r="4.5" fill="#161b22" stroke="#818cf8" stroke-width="3"/><circle cx="244.5" cy="61.0" r="4.5" fill="#161b22" stroke="#818cf8" stroke-width="3"/><circle cx="254.1" cy="61.0" r="4.5" fill="#161b22" stroke="#818cf8" stroke-width="3"/><circle cx="263.7" cy="69.9" r="4.5" fill="#161b22" stroke="#818cf8" stroke-width="3"/><circle cx="273.3" cy="61.0" r="4.5" fill="#161b22" stroke="#818cf8" stroke-width="3"/><circle cx="282.9" cy="61.0" r="4.5" fill="#161b22" stroke="#818cf8" stroke-width="3"/><circle cx="292.6" cy="61.0" r="4.5" fill="#161b22" stroke="#818cf8" stroke-width="3"/><circle cx="302.2" cy="69.9" r="4.5" fill="#161b22" stroke="#818cf8" stroke-width="3"/><circle cx="311.8" cy="78.9" r="4.5" fill="#161b22" stroke="#818cf8" stroke-width="3"/><circle cx="321.4" cy="168.5" r="4.5" fill="#161b22" stroke="#818cf8" stroke-width="3"/><circle cx="331.1" cy="61.0" r="4.5" fill="#161b22" stroke="#818cf8" stroke-width="3"/><circle cx="340.7" cy="61.0" r="4.5" fill="#161b22" stroke="#818cf8" stroke-width="3"/><circle cx="350.3" cy="61.0" r="4.5" fill="#161b22" stroke="#818cf8" stroke-width="3"/><circle cx="359.9" cy="195.4" r="4.5" fill="#161b22" stroke="#818cf8" stroke-width="3"/><circle cx="369.5" cy="213.3" r="4.5" fill="#161b22" stroke="#818cf8" stroke-width="3"/><circle cx="379.2" cy="240.2" r="4.5" fill="#161b22" stroke="#818cf8" stroke-width="3"/><circle cx="388.8" cy="114.7" r="4.5" fill="#161b22" stroke="#818cf8" stroke-width="3"/><circle cx="398.4" cy="231.2" r="4.5" fill="#161b22" stroke="#818cf8" stroke-width="3"/><circle cx="408.0" cy="213.3" r="4.5" fill="#161b22" stroke="#818cf8" stroke-width="3"/><circle cx="417.7" cy="267.0" r="4.5" fill="#161b22" stroke="#818cf8" stroke-width="3"/><circle cx="427.3" cy="150.6" r="4.5" fill="#161b22" stroke="#818cf8" stroke-width="3"/><circle cx="436.9" cy="231.2" r="4.5" fill="#161b22" stroke="#818cf8" stroke-width="3"/><circle cx="446.5" cy="61.0" r="4.5" fill="#161b22" stroke="#818cf8" stroke-width="3"/><circle cx="456.2" cy="61.0" r="4.5" fill="#161b22" stroke="#818cf8" stroke-width="3"/><circle cx="465.8" cy="123.7" r="4.5" fill="#161b22" stroke="#818cf8" stroke-width="3"/><circle cx="475.4" cy="186.4" r="4.5" fill="#161b22" stroke="#818cf8" stroke-width="3"/><circle cx="485.0" cy="168.5" r="4.5" fill="#161b22" stroke="#818cf8" stroke-width="3"/><circle cx="494.6" cy="276.0" r="4.5" fill="#161b22" stroke="#818cf8" stroke-width="3"/><circle cx="504.3" cy="96.8" r="4.5" fill="#161b22" stroke="#818cf8" stroke-width="3"/><circle cx="513.9" cy="132.6" r="4.5" fill="#161b22" stroke="#818cf8" stroke-width="3"/><circle cx="523.5" cy="159.5" r="4.5" fill="#161b22" stroke="#818cf8" stroke-width="3"/><circle cx="533.1" cy="168.5" r="4.5" fill="#161b22" stroke="#818cf8" stroke-width="3"/><circle cx="542.8" cy="132.6" r="4.5" fill="#161b22" stroke="#818cf8" stroke-width="3"/><circle cx="552.4" cy="78.9" r="4.5" fill="#161b22" stroke="#818cf8" stroke-width="3"/><circle cx="562.0" cy="96.8" r="4.5" fill="#161b22" stroke="#818cf8" stroke-width="3"/><circle cx="571.6" cy="78.9" r="4.5" fill="#161b22" stroke="#818cf8" stroke-width="3"/><circle cx="581.2" cy="96.8" r="4.5" fill="#161b22" stroke="#818cf8" stroke-width="3"/><circle cx="590.9" cy="204.3" r="4.5" fill="#161b22" stroke="#818cf8" stroke-width="3"/><circle cx="600.5" cy="213.3" r="4.5" fill="#161b22" stroke="#818cf8" stroke-width="3"/><circle cx="610.1" cy="87.8" r="4.5" fill="#161b22" stroke="#818cf8" stroke-width="3"/><circle cx="619.7" cy="168.5" r="4.5" fill="#161b22" stroke="#818cf8" stroke-width="3"/><circle cx="629.4" cy="96.8" r="4.5" fill="#161b22" stroke="#818cf8" stroke-width="3"/><circle cx="639.0" cy="168.5" r="4.5" fill="#161b22" stroke="#818cf8" stroke-width="3"/><circle cx="648.6" cy="249.1" r="4.5" fill="#161b22" stroke="#818cf8" stroke-width="3"/><circle cx="658.2" cy="87.8" r="4.5" fill="#161b22" stroke="#818cf8" stroke-width="3"/><circle cx="667.8" cy="78.9" r="4.5" fill="#161b22" stroke="#818cf8" stroke-width="3"/><circle cx="677.5" cy="168.5" r="4.5" fill="#161b22" stroke="#818cf8" stroke-width="3"/><circle cx="687.1" cy="69.9" r="4.5" fill="#161b22" stroke="#818cf8" stroke-width="3"/><circle cx="696.7" cy="69.9" r="4.5" fill="#161b22" stroke="#818cf8" stroke-width="3"/><circle cx="706.3" cy="105.8" r="4.5" fill="#161b22" stroke="#818cf8" stroke-width="3"/><circle cx="716.0" cy="123.7" r="4.5" fill="#161b22" stroke="#818cf8" stroke-width="3"/><circle cx="725.6" cy="159.5" r="4.5" fill="#161b22" stroke="#818cf8" stroke-width="3"/><circle cx="735.2" cy="78.9" r="4.5" fill="#161b22" stroke="#818cf8" stroke-width="3"/><circle cx="744.8" cy="141.6" r="4.5" fill="#161b22" stroke="#818cf8" stroke-width="3"/><circle cx="754.5" cy="186.4" r="4.5" fill="#161b22" stroke="#818cf8" stroke-width="3"/><circle cx="764.1" cy="141.6" r="4.5" fill="#161b22" stroke="#818cf8" stroke-width="3"/><circle cx="773.7" cy="78.9" r="4.5" fill="#161b22" stroke="#818cf8" stroke-width="3"/><circle cx="783.3" cy="78.9" r="4.5" fill="#161b22" stroke="#818cf8" stroke-width="3"/><circle cx="792.9" cy="69.9" r="4.5" fill="#161b22" stroke="#818cf8" stroke-width="3"/><circle cx="802.6" cy="114.7" r="4.5" fill="#161b22" stroke="#818cf8" stroke-width="3"/><circle cx="812.2" cy="195.4" r="4.5" fill="#161b22" stroke="#818cf8" stroke-width="3"/><circle cx="821.8" cy="69.9" r="4.5" fill="#161b22" stroke="#818cf8" stroke-width="3"/><circle cx="831.4" cy="231.2" r="4.5" fill="#161b22" stroke="#818cf8" stroke-width="3"/><circle cx="841.1" cy="186.4" r="4.5" fill="#161b22" stroke="#818cf8" stroke-width="3"/><circle cx="850.7" cy="213.3" r="4.5" fill="#161b22" stroke="#818cf8" stroke-width="3"/><circle cx="860.3" cy="204.3" r="4.5" fill="#161b22" stroke="#818cf8" stroke-width="3"/><circle cx="869.9" cy="276.0" r="4.5" fill="#161b22" stroke="#818cf8" stroke-width="3"/><circle cx="879.5" cy="240.2" r="4.5" fill="#161b22" stroke="#818cf8" stroke-width="3"/><circle cx="889.2" cy="87.8" r="4.5" fill="#161b22" stroke="#818cf8" stroke-width="3"/><circle cx="898.8" cy="132.6" r="4.5" fill="#161b22" stroke="#818cf8" stroke-width="3"/><circle cx="908.4" cy="222.2" r="4.5" fill="#161b22" stroke="#818cf8" stroke-width="3"/><circle cx="918.0" cy="195.4" r="4.5" fill="#161b22" stroke="#818cf8" stroke-width="3"/><circle cx="927.7" cy="96.8" r="4.5" fill="#161b22" stroke="#818cf8" stroke-width="3"/><circle cx="937.3" cy="69.9" r="4.5" fill="#161b22" stroke="#818cf8" stroke-width="3"/><circle cx="946.9" cy="132.6" r="4.5" fill="#161b22" stroke="#818cf8" stroke-width="3"/><circle cx="956.5" cy="132.6" r="4.5" fill="#161b22" stroke="#818cf8" stroke-width="3"/><circle cx="966.2" cy="132.6" r="4.5" fill="#161b22" stroke="#818cf8" stroke-width="3"/><circle cx="975.8" cy="186.4" r="4.5" fill="#161b22" stroke="#818cf8" stroke-width="3"/><circle cx="985.4" cy="96.8" r="4.5" fill="#161b22" stroke="#818cf8" stroke-width="3"/><circle cx="995.0" cy="267.0" r="4.5" fill="#161b22" stroke="#818cf8" stroke-width="3"/><circle cx="1004.6" cy="61.0" r="4.5" fill="#161b22" stroke="#818cf8" stroke-width="3"/><circle cx="1014.3" cy="61.0" r="4.5" fill="#161b22" stroke="#818cf8" stroke-width="3"/><circle cx="1023.9" cy="105.8" r="4.5" fill="#161b22" stroke="#818cf8" stroke-width="3"/><circle cx="1033.5" cy="141.6" r="4.5" fill="#161b22" stroke="#818cf8" stroke-width="3"/><circle cx="1043.1" cy="87.8" r="4.5" fill="#161b22" stroke="#818cf8" stroke-width="3"/><circle cx="1052.8" cy="213.3" r="4.5" fill="#161b22" stroke="#818cf8" stroke-width="3"/><circle cx="1062.4" cy="222.2" r="4.5" fill="#161b22" stroke="#818cf8" stroke-width="3"/><circle cx="1072.0" cy="168.5" r="4.5" fill="#161b22" stroke="#818cf8" stroke-width="3"/>
  <text x="52.0" y="322" fill="#8b949e" font-size="12" text-anchor="start" font-family="system-ui,-apple-system,sans-serif">2025-05-29</text><text x="196.3" y="322" fill="#8b949e" font-size="12" text-anchor="middle" font-family="system-ui,-apple-system,sans-serif">2025-06-29</text><text x="340.7" y="322" fill="#8b949e" font-size="12" text-anchor="middle" font-family="system-ui,-apple-system,sans-serif">2025-07-28</text><text x="485.0" y="322" fill="#8b949e" font-size="12" text-anchor="middle" font-family="system-ui,-apple-system,sans-serif">2026-04-13</text><text x="639.0" y="322" fill="#8b949e" font-size="12" text-anchor="middle" font-family="system-ui,-apple-system,sans-serif">2026-05-20</text><text x="783.3" y="322" fill="#8b949e" font-size="12" text-anchor="middle" font-family="system-ui,-apple-system,sans-serif">2026-06-24</text><text x="927.7" y="322" fill="#8b949e" font-size="12" text-anchor="middle" font-family="system-ui,-apple-system,sans-serif">2026-08-15</text><text x="1072.0" y="322" fill="#8b949e" font-size="12" text-anchor="end" font-family="system-ui,-apple-system,sans-serif">2026-09-07</text>
</svg>