<svg xmlns="http://www.w3.org/2000/svg" viewBox="0 0 1100 340" width="100%" role="img" aria-label="Python Ranking">
  <rect width="1100" height="340" fill="#161b22" stroke="#30363d" rx="10"/>
  <text x="20" y="30" fill="#e6edf3" font-size="18" font-weight="700" font-family="system-ui,-apple-system,sans-serif">Python Ranking</text>
  <line x1="52" y1="96.80000000000001" x2="1072" y2="96.80000000000001" stroke="#30363d" stroke-dasharray="5 5" stroke-width="1"/><line x1="52" y1="141.60000000000002" x2="1072" y2="141.60000000000002" stroke="#30363d" stroke-dasharray="5 5" stroke-width="1"/><line x1="52" y1="186.4" x2="1072" y2="186.4" stroke="#30363d" stroke-dasharray="5 5" stroke-width="1"/><line x1="52" y1="231.20000000000002" x2="1072" y2="231.20000000000002" stroke="#30363d" stroke-dasharray="5 5" stroke-width="1"/><line x1="52" y1="276" x2="1072" y2="276" stroke="#30363d" stroke-dasharray="5 5" stroke-width="1"/>
  <text x="42" y="56" fill="#8b949e" font-size="12" text-anchor="end" font-family="system-ui,-apple-system,sans-serif">0</text><text x="42" y="100.80000000000001" fill="#8b949e" font-size="12" text-anchor="end" font-family="system-ui,-apple-system,sans-serif">5</text><text x="42" y="145.60000000000002" fill="#8b949e" font-size="12" text-anchor="end" font-family="system-ui,-apple-system,sans-serif">10</text><text x="42" y="190.4" fill="#8b949e" font-size="12" text-anchor="end" font-family="system-ui,-apple-system,sans-serif">15</text><text x="42" y="235.20000000000002" fill="#8b949e" font-size="12" text-anchor="end" font-family="system-ui,-apple-system,sans-serif">20</text><text x="42" y="280" fill="#8b949e" font-size="12" text-anchor="end" font-family="system-ui,-apple-system,sans-serif">25</text>
  <path d="M52.0,78.9 L63.6,78.9 L75.2,61.0 L86.8,61.0 L98.4,61.0 L110.0,69.9 L121.5,87.8 L133.1,69.9 L144.7,141.6 L156.3,114.7 L167.9,240.2 L179.5,132.6 L191.1,78.9 L202.7,123.7 L214.3,159.5 L225.9,61.0 L237.5,61.0 L249.0,69.9 L260.6,249.1 L272.2,132.6 L283.8,61.0 L295.4,61.0 L307.0,69.9 L318.6,61.0 L330.2,61.0 L341.8,61.0 L353.4,69.9 L365.0,78.9 L376.5,168.5 L388.1,61.0 L399.7,61.0 L411.3,61.0 L422.9,195.4 L434.5,213.3 L446.1,240.2 L457.7,114.7 L469.3,231.2 L480.9,213.3 L492.5,267.0 L504.0,150.6 L515.6,231.2 L527.2,61.0 L538.8,61.0 L550.4,123.7 L562.0,186.4 L573.6,168.5 L585.2,276.0 L596.8,96.8 L608.4,132.6 L620.0,159.5 L631.5,168.5 L643.1,132.6 L654.7,78.9 L666.3,96.8 L677.9,78.9 L689.5,96.8 L701.1,204.3 L712.7,213.3 L724.3,87.8 L735.9,168.5 L747.5,96.8 L759.0,168.5 L770.6,249.1 L782.2,87.8 L793.8,78.9 L805.4,168.5 L817.0,69.9 L828.6,69.9 L840.2,105.8 L851.8,123.7 L863.4,159.5 L875.0,78.9 L886.5,141.6 L898.1,186.4 L909.7,141.6 L921.3,78.9 L932.9,78.9 L944.5,69.9 L956.1,114.7 L967.7,195.4 L979.3,69.9 L990.9,231.2 L1002.5,186.4 L1014.0,213.3 L1025.6,204.3 L1037.2,276.0 L1048.8,240.2 L1060.4,87.8 L1072.0,132.6" fill="none" stroke="#818cf8" stroke-width="3.5" stroke-linecap="round" stroke-linejoin="round"/>
  <circle cx="52.0" cy="78.9" r="4.5" fill="#161b22" stroke="#818cf8" stroke-width="3"/><circle cx="63.6" cy="78.9" r="4.5" fill="#161b22" stroke="#818cf8" stroke-width="3"/><circle cx="75.2" cy="61.0" r="4.5" fill="#161b22" stroke="#818cf8" stroke-width="3"/><circle cx="86.8" cy="61.0" r="4.5" fill="#161b22" stroke="#818cf8" stroke-width="3"/><circle cx="98.4" cy="61.0" r="4.5" fill="#161b22" stroke="#818cf8" stroke-width="3"/><circle cx="110.0" cy="69.9" r="4.5" fill="#161b22" stroke="#818cf8" stroke-width="3"/><circle cx="121.5" cy="87.8" r="4.5" fill="#161b22" stroke="#818cf8" stroke-width="3"/><circle cx="133.1" cy="69.9" r="4.5" fill="#161b22" stroke="#818cf8" stroke-width="3"/><circle cx="144.7" cy="141.6" r="4.5" fill="#161b22" stroke="#818cf8" stroke-width="3"/><circle cx="156.3" cy="114.7" r="4.5" fill="#161b22" stroke="#818cf8" stroke-width="3"/><circle cx="167.9" cy="240.2" r="4.5" fill="#161b22" stroke="#818cf8" stroke-width="3"/><circle cx="179.5" cy="132.6" r="4.5" fill="#161b22" stroke="#818cf8" stroke-width="3"/><circle cx="191.1" cy="78.9" r="4.5" fill="#161b22" stroke="#818cf8" stroke-width="3"/><circle cx="202.7" cy="123.7" r="4.5" fill="#161b22" stroke="#818cf8" stroke-width="3"/><circle cx="214.3" cy="159.5" r="4.5" fill="#161b22" stroke="#818cf8" stroke-width="3"/><circle cx="225.9" cy="61.0" r="4.5" fill="#161b22" stroke="#818cf8" stroke-width="3"/><circle cx="237.5" cy="61.0" r="4.5" fill="#161b22" stroke="#818cf8" stroke-width="3"/><circle cx="249.0" cy="69.9" r="4.5" fill="#161b22" stroke="#818cf8" stroke-width="3"/><circle cx="260.6" cy="249.1" r="4.5" fill="#161b22" stroke="#818cf8" stroke-width="3"/><circle cx="272.2" cy="132.6" r="4.5" fill="#161b22" stroke="#818cf8" stroke-width="3"/><circle cx="283.8" cy="61.0" r="4.5" fill="#161b22" stroke="#818cf8" stroke-width="3"/><circle cx="295.4" cy="61.0" r="4.5" fill="#161b22" stroke="#818cf8" stroke-width="3"/><circle cx="307.0" cy="69.9" r="4.5" fill="#161b22" stroke="#818cf8" stroke-width="3"/><circle cx="318.6" cy="61.0" r="4.5" fill="#161b22" stroke="#818cf8" stroke-width="3"/><circle cx="330.2" cy="61.0" r="4.5" fill="#161b22" stroke="#818cf8" stroke-width="3"/><circle cx="341.8" cy="61.0" r="4.5" fill="#161b22" stroke="#818cf8" stroke-width="3"/><circle cx="353.4" cy="69.9" r="4.5" fill="#161b22" stroke="#818cf8" stroke-width="3"/><circle cx="365.0" cy="78.9" r="4.5" fill="#161b22" stroke="#818cf8" stroke-width="3"/><circle cx="376.5" cy="168.5" r="4.5" fill="#161b22" stroke="#818cf8" stroke-width="3"/><circle cx="388.1" cy="61.0" r="4.5" fill="#161b22" stroke="#818cf8" stroke-width="3"/><circle cx="399.7" cy="61.0" r="4.5" fill="#161b22" stroke="#818cf8" stroke-width="3"/><circle cx="411.3" cy="61.0" r="4.5" fill="#161b22" stroke="#818cf8" stroke-width="3"/><circle cx="422.9" cy="195.4" r="4.5" fill="#161b22" stroke="#818cf8" stroke-width="3"/><circle cx="434.5" cy="213.3" r="4.5" fill="#161b22" stroke="#818cf8" stroke-width="3"/><circle cx="446.1" cy="240.2" r="4.5" fill="#161b22" stroke="#818cf8" stroke-width="3"/><circle cx="457.7" cy="114.7" r="4.5" fill="#161b22" stroke="#818cf8" stroke-width="3"/><circle cx="469.3" cy="231.2" r="4.5" fill="#161b22" stroke="#818cf8" stroke-width="3"/><circle cx="480.9" cy="213.3" r="4.5" fill="#161b22" stroke="#818cf8" stroke-width="3"/><circle cx="492.5" cy="267.0" r="4.5" fill="#161b22" stroke="#818cf8" stroke-width="3"/><circle cx="504.0" cy="150.6" r="4.5" fill="#161b22" stroke="#818cf8" stroke-width="3"/><circle cx="515.6" cy="231.2" r="4.5" fill="#161b22" stroke="#818cf8" stroke-width="3"/><circle cx="527.2" cy="61.0" r="4.5" fill="#161b22" stroke="#818cf8" stroke-width="3"/><circle cx="538.8" cy="61.0" r="4.5" fill="#161b22" stroke="#818cf8" stroke-width="3"/><circle cx="550.4" cy="123.7" r="4.5" fill="#161b22" stroke="#818cf8" stroke-width="3"/><circle cx="562.0" cy="186.4" r="4.5" fill="#161b22" stroke="#818cf8" stroke-width="3"/><circle cx="573.6" cy="168.5" r="4.5" fill="#161b22" stroke="#818cf8" stroke-width="3"/><circle cx="585.2" cy="276.0" r="4.5" fill="#161b22" stroke="#818cf8" stroke-width="3"/><circle cx="596.8" cy="96.8" r="4.5" fill="#161b22" stroke="#818cf8" stroke-width="3"/><circle cx="608.4" cy="132.6" r="4.5" fill="#161b22" stroke="#818cf8" stroke-width="3"/><circle cx="620.0" cy="159.5" r="4.5" fill="#161b22" stroke="#818cf8" stroke-width="3"/><circle cx="631.5" cy="168.5" r="4.5" fill="#161b22" stroke="#818cf8" stroke-width="3"/><circle cx="643.1" cy="132.6" r="4.5" fill="#161b22" stroke="#818cf8" stroke-width="3"/><circle cx="654.7" cy="78.9" r="4.5" fill="#161b22" stroke="#818cf8" stroke-width="3"/><circle cx="666.3" cy="96.8" r="4.5" fill="#161b22" stroke="#818cf8" stroke-width="3"/><circle cx="677.9" cy="78.9" r="4.5" fill="#161b22" stroke="#818cf8" stroke-width="3"/><circle cx="689.5" cy="96.8" r="4.5" fill="#161b22" stroke="#818cf8" stroke-width="3"/><circle cx="701.1" cy="204.3" r="4.5" fill="#161b22" stroke="#818cf8" stroke-width="3"/><circle cx="712.7" cy="213.3" r="4.5" fill="#161b22" stroke="#818cf8" stroke-width="3"/><circle cx="724.3" cy="87.8" r="4.5" fill="#161b22" stroke="#818cf8" stroke-width="3"/><circle cx="735.9" cy="168.5" r="4.5" fill="#161b22" stroke="#818cf8" stroke-width="3"/><circle cx="747.5" cy="96.8" r="4.5" fill="#161b22" stroke="#818cf8" stroke-width="3"/><circle cx="759.0" cy="168.5" r="4.5" fill="#161b22" stroke="#818cf8" stroke-width="3"/><circle cx="770.6" cy="249.1" r="4.5" fill="#161b22" stroke="#818cf8" stroke-width="3"/><circle cx="782.2" cy="87.8" r="4.5" fill="#161b22" stroke="#818cf8" stroke-width="3"/><circle cx="793.8" cy="78.9" r="4.5" fill="#161b22" stroke="#818cf8" stroke-width="3"/><circle cx="805.4" cy="168.5" r="4.5" fill="#161b22" stroke="#818cf8" stroke-width="3"/><circle cx="817.0" cy="69.9" r="4.5" fill="#161b22" stroke="#818cf8" stroke-width="3"/><circle cx="828.6" cy="69.9" r="4.5" fill="#161b22" stroke="#818cf8" stroke-width="3"/><circle cx="840.2" cy="105.8" r="4.5" fill="#161b22" stroke="#818cf8" stroke-width="3"/><circle cx="851.8" cy="123.7" r="4.5" fill="#161b22" stroke="#818cf8" stroke-width="3"/><circle cx="863.4" cy="159.5" r="4.5" fill="#161b22" stroke="#818cf8" stroke-width="3"/><circle cx="875.0" cy="78.9" r="4.5" fill="#161b22" stroke="#818cf8" stroke-width="3"/><circle cx="886.5" cy="141.6" r="4.5" fill="#161b22" stroke="#818cf8" stroke-width="3"/><circle cx="898.1" cy="186.4" r="4.5" fill="#161b22" stroke="#818cf8" stroke-width="3"/><circle cx="909.7" cy="141.6" r="4.5" fill="#161b22" stroke="#818cf8" stroke-width="3"/><circle cx="921.3" cy="78.9" r="4.5" fill="#161b22" stroke="#818cf8" stroke-width="3"/><circle cx="932.9" cy="78.9" r="4.5" fill="#161b22" stroke="#818cf8" stroke-width="3"/><circle cx="944.5" cy="69.9" r="4.5" fill="#161b22" stroke="#818cf8" stroke-width="3"/><circle cx="956.1" cy="114.7" r="4.5" fill="#161b22" stroke="#818cf8" stroke-width="3"/><circle cx="967.7" cy="195.4" r="4.5" fill="#161b22" stroke="#818cf8" stroke-width="3"/><circle cx="979.3" cy="69.9" r="4.5" fill="#161b22" stroke="#818cf8" stroke-width="3"/><circle cx="990.9" cy="231.2" r="4.5" fill="#161b22" stroke="#818cf8" stroke-width="3"/><circle cx="1002.5" cy="186.4" r="4.5" fill="#161b22" stroke="#818cf8" stroke-width="3"/><circle cx="1014.0" cy="213.3" r="4.5" fill="#161b22" stroke="#818cf8" stroke-width="3"/><circle cx="1025.6" cy="204.3" r="4.5" fill="#161b22" stroke="#818cf8" stroke-width="3"/><circle cx="1037.2" cy="276.0" r="4.5" fill="#161b22" stroke="#818cf8" stroke-width="3"/><circle cx="1048.8" cy="240.2" r="4.5" fill="#161b22" stroke="#818cf8" stroke-width="3"/><circle cx="1060.4" cy="87.8" r="4.5" fill="#161b22" stroke="#818cf8" stroke-width="3"/><circle cx="1072.0" cy="132.6" r="4.5" fill="#161b22" stroke="#818cf8" stroke-width="3"/>
  <text x="52.0" y="322" fill="#8b949e" font-size="12" text-anchor="start" font-family="system-ui,-apple-system,sans-serif">2025-05-29</text><text x="202.7" y="322" fill="#8b949e" font-size="12" text-anchor="middle" font-family="system-ui,-apple-system,sans-serif">2025-06-23</text><text x="341.8" y="322" fill="#8b949e" font-size="12" text-anchor="middle" font-family="system-ui,-apple-system,sans-serif">2025-07-13</text><text x="492.5" y="322" fill="#8b949e" font-size="12" text-anchor="middle" font-family="system-ui,-apple-system,sans-serif">2026-03-07</text><text x="631.5" y="322" fill="#8b949e" font-size="12" text-anchor="middle" font-family="system-ui,-apple-system,sans-serif">2026-04-29</text><text x="782.2" y="322" fill="#8b949e" font-size="12" text-anchor="middle" font-family="system-ui,-apple-system,sans-serif">2026-05-22</text><text x="921.3" y="322" fill="#8b949e" font-size="12" text-anchor="middle" font-family="system-ui,-apple-system,sans-serif">2026-06-23</text><text x="1072.0" y="322" fill="#8b949e" font-size="12" text-anchor="end" font-family="system-ui,-apple-system,sans-serif">2026-08-02</text>
</svg>