<svg xmlns="http://www.w3.org/2000/svg" viewBox="0 0 1100 340" width="100%" role="img" aria-label="Python Ranking">
  <rect width="1100" height="340" fill="#ffffff" stroke="#e5e7eb" rx="10"/>
  <text x="20" y="30" fill="#111827" font-size="18" font-weight="700" font-family="system-ui,-apple-system,sans-serif">Python Ranking</text>
  <line x1="52" y1="96.80000000000001" x2="1072" y2="96.80000000000001" stroke="#e5e7eb" stroke-dasharray="5 5" stroke-width="1"/><line x1="52" y1="141.60000000000002" x2="1072" y2="141.60000000000002" stroke="#e5e7eb" stroke-dasharray="5 5" stroke-width="1"/><line x1="52" y1="186.4" x2="1072" y2="186.4" stroke="#e5e7eb" stroke-dasharray="5 5" stroke-width="1"/><line x1="52" y1="231.20000000000002" x2="1072" y2="231.20000000000002" stroke="#e5e7eb" stroke-dasharray="5 5" stroke-width="1"/><line x1="52" y1="276" x2="1072" y2="276" stroke="#e5e7eb" stroke-dasharray="5 5" stroke-width="1"/>
  <text x="42" y="56" fill="#6b7280" font-size="12" text-anchor="end" font-family="system-ui,-apple-system,sans-serif">0</text><text x="42" y="100.80000000000001" fill="#6b7280" font-size="12" text-anchor="end" font-family="system-ui,-apple-system,sans-serif">5</text><text x="42" y="145.60000000000002" fill="#6b7280" font-size="12" text-anchor="end" font-family="system-ui,-apple-system,sans-serif">10</text><text x="42" y="190.4" fill="#6b7280" font-size="12" text-anchor="end" font-family="system-ui,-apple-system,sans-serif">15</text><text x="42" y="235.20000000000002" fill="#6b7280" font-size="12" text-anchor="end" font-family="system-ui,-apple-system,sans-serif">20</text><text x="42" y="280" fill="#6b7280" font-size="12" text-anchor="end" font-family="system-ui,-apple-system,sans-serif">25</text>
  <path d="M52.0,78.9 L63.7,78.9 L75.4,61.0 L87.2,61.0 L98.9,61.0 L110.6,69.9 L122.3,87.8 L134.1,69.9 L145.8,141.6 L157.5,114.7 L169.2,240.2 L181.0,132.6 L192.7,78.9 L204.4,123.7 L216.1,159.5 L227.9,61.0 L239.6,61.0 L251.3,69.9 L263.0,249.1 L274.8,132.6 L286.5,61.0 L298.2,61.0 L309.9,69.9 L321.7,61.0 L333.4,61.0 L345.1,61.0 L356.8,69.9 L368.6,78.9 L380.3,168.5 L392.0,61.0 L403.7,61.0 L415.4,61.0 L427.2,195.4 L438.9,213.3 L450.6,240.2 L462.3,114.7 L474.1,231.2 L485.8,213.3 L497.5,267.0 L509.2,150.6 L521.0,231.2 L532.7,61.0 L544.4,61.0 L556.1,123.7 L567.9,186.4 L579.6,168.5 L591.3,276.0 L603.0,96.8 L614.8,132.6 L626.5,159.5 L638.2,168.5 L649.9,132.6 L661.7,78.9 L673.4,96.8 L685.1,78.9 L696.8,96.8 L708.6,204.3 L720.3,213.3 L732.0,87.8 L743.7,168.5 L755.4,96.8 L767.2,168.5 L778.9,249.1 L790.6,87.8 L802.3,78.9 L814.1,168.5 L825.8,69.9 L837.5,69.9 L849.2,105.8 L861.0,123.7 L872.7,159.5 L884.4,78.9 L896.1,141.6 L907.9,186.4 L919.6,141.6 L931.3,78.9 L943.0,78.9 L954.8,69.9 L966.5,114.7 L978.2,195.4 L989.9,69.9 L1001.7,231.2 L1013.4,186.4 L1025.1,213.3 L1036.8,204.3 L1048.6,276.0 L1060.3,240.2 L1072.0,87.8" fill="none" stroke="#4f46e5" stroke-width="3.5" stroke-linecap="round" stroke-linejoin="round"/>
  <circle cx="52.0" cy="78.9" r="4.5" fill="#ffffff" stroke="#4f46e5" stroke-width="3"/><circle cx="63.7" cy="78.9" r="4.5" fill="#ffffff" stroke="#4f46e5" stroke-width="3"/><circle cx="75.4" cy="61.0" r="4.5" fill="#ffffff" stroke="#4f46e5" stroke-width="3"/><circle cx="87.2" cy="61.0" r="4.5" fill="#ffffff" stroke="#4f46e5" stroke-width="3"/><circle cx="98.9" cy="61.0" r="4.5" fill="#ffffff" stroke="#4f46e5" stroke-width="3"/><circle cx="110.6" cy="69.9" r="4.5" fill="#ffffff" stroke="#4f46e5" stroke-width="3"/><circle cx="122.3" cy="87.8" r="4.5" fill="#ffffff" stroke="#4f46e5" stroke-width="3"/><circle cx="134.1" cy="69.9" r="4.5" fill="#ffffff" stroke="#4f46e5" stroke-width="3"/><circle cx="145.8" cy="141.6" r="4.5" fill="#ffffff" stroke="#4f46e5" stroke-width="3"/><circle cx="157.5" cy="114.7" r="4.5" fill="#ffffff" stroke="#4f46e5" stroke-width="3"/><circle cx="169.2" cy="240.2" r="4.5" fill="#ffffff" stroke="#4f46e5" stroke-width="3"/><circle cx="181.0" cy="132.6" r="4.5" fill="#ffffff" stroke="#4f46e5" stroke-width="3"/><circle cx="192.7" cy="78.9" r="4.5" fill="#ffffff" stroke="#4f46e5" stroke-width="3"/><circle cx="204.4" cy="123.7" r="4.5" fill="#ffffff" stroke="#4f46e5" stroke-width="3"/><circle cx="216.1" cy="159.5" r="4.5" fill="#ffffff" stroke="#4f46e5" stroke-width="3"/><circle cx="227.9" cy="61.0" r="4.5" fill="#ffffff" stroke="#4f46e5" stroke-width="3"/><circle cx="239.6" cy="61.0" r="4.5" fill="#ffffff" stroke="#4f46e5" stroke-width="3"/><circle cx="251.3" cy="69.9" r="4.5" fill="#ffffff" stroke="#4f46e5" stroke-width="3"/><circle cx="263.0" cy="249.1" r="4.5" fill="#ffffff" stroke="#4f46e5" stroke-width="3"/><circle cx="274.8" cy="132.6" r="4.5" fill="#ffffff" stroke="#4f46e5" stroke-width="3"/><circle cx="286.5" cy="61.0" r="4.5" fill="#ffffff" stroke="#4f46e5" stroke-width="3"/><circle cx="298.2" cy="61.0" r="4.5" fill="#ffffff" stroke="#4f46e5" stroke-width="3"/><circle cx="309.9" cy="69.9" r="4.5" fill="#ffffff" stroke="#4f46e5" stroke-width="3"/><circle cx="321.7" cy="61.0" r="4.5" fill="#ffffff" stroke="#4f46e5" stroke-width="3"/><circle cx="333.4" cy="61.0" r="4.5" fill="#ffffff" stroke="#4f46e5" stroke-width="3"/><circle cx="345.1" cy="61.0" r="4.5" fill="#ffffff" stroke="#4f46e5" stroke-width="3"/><circle cx="356.8" cy="69.9" r="4.5" fill="#ffffff" stroke="#4f46e5" stroke-width="3"/><circle cx="368.6" cy="78.9" r="4.5" fill="#ffffff" stroke="#4f46e5" stroke-width="3"/><circle cx="380.3" cy="168.5" r="4.5" fill="#ffffff" stroke="#4f46e5" stroke-width="3"/><circle cx="392.0" cy="61.0" r="4.5" fill="#ffffff" stroke="#4f46e5" stroke-width="3"/><circle cx="403.7" cy="61.0" r="4.5" fill="#ffffff" stroke="#4f46e5" stroke-width="3"/><circle cx="415.4" cy="61.0" r="4.5" fill="#ffffff" stroke="#4f46e5" stroke-width="3"/><circle cx="427.2" cy="195.4" r="4.5" fill="#ffffff" stroke="#4f46e5" stroke-width="3"/><circle cx="438.9" cy="213.3" r="4.5" fill="#ffffff" stroke="#4f46e5" stroke-width="3"/><circle cx="450.6" cy="240.2" r="4.5" fill="#ffffff" stroke="#4f46e5" stroke-width="3"/><circle cx="462.3" cy="114.7" r="4.5" fill="#ffffff" stroke="#4f46e5" stroke-width="3"/><circle cx="474.1" cy="231.2" r="4.5" fill="#ffffff" stroke="#4f46e5" stroke-width="3"/><circle cx="485.8" cy="213.3" r="4.5" fill="#ffffff" stroke="#4f46e5" stroke-width="3"/><circle cx="497.5" cy="267.0" r="4.5" fill="#ffffff" stroke="#4f46e5" stroke-width="3"/><circle cx="509.2" cy="150.6" r="4.5" fill="#ffffff" stroke="#4f46e5" stroke-width="3"/><circle cx="521.0" cy="231.2" r="4.5" fill="#ffffff" stroke="#4f46e5" stroke-width="3"/><circle cx="532.7" cy="61.0" r="4.5" fill="#ffffff" stroke="#4f46e5" stroke-width="3"/><circle cx="544.4" cy="61.0" r="4.5" fill="#ffffff" stroke="#4f46e5" stroke-width="3"/><circle cx="556.1" cy="123.7" r="4.5" fill="#ffffff" stroke="#4f46e5" stroke-width="3"/><circle cx="567.9" cy="186.4" r="4.5" fill="#ffffff" stroke="#4f46e5" stroke-width="3"/><circle cx="579.6" cy="168.5" r="4.5" fill="#ffffff" stroke="#4f46e5" stroke-width="3"/><circle cx="591.3" cy="276.0" r="4.5" fill="#ffffff" stroke="#4f46e5" stroke-width="3"/><circle cx="603.0" cy="96.8" r="4.5" fill="#ffffff" stroke="#4f46e5" stroke-width="3"/><circle cx="614.8" cy="132.6" r="4.5" fill="#ffffff" stroke="#4f46e5" stroke-width="3"/><circle cx="626.5" cy="159.5" r="4.5" fill="#ffffff" stroke="#4f46e5" stroke-width="3"/><circle cx="638.2" cy="168.5" r="4.5" fill="#ffffff" stroke="#4f46e5" stroke-width="3"/><circle cx="649.9" cy="132.6" r="4.5" fill="#ffffff" stroke="#4f46e5" stroke-width="3"/><circle cx="661.7" cy="78.9" r="4.5" fill="#ffffff" stroke="#4f46e5" stroke-width="3"/><circle cx="673.4" cy="96.8" r="4.5" fill="#ffffff" stroke="#4f46e5" stroke-width="3"/><circle cx="685.1" cy="78.9" r="4.5" fill="#ffffff" stroke="#4f46e5" stroke-width="3"/><circle cx="696.8" cy="96.8" r="4.5" fill="#ffffff" stroke="#4f46e5" stroke-width="3"/><circle cx="708.6" cy="204.3" r="4.5" fill="#ffffff" stroke="#4f46e5" stroke-width="3"/><circle cx="720.3" cy="213.3" r="4.5" fill="#ffffff" stroke="#4f46e5" stroke-width="3"/><circle cx="732.0" cy="87.8" r="4.5" fill="#ffffff" stroke="#4f46e5" stroke-width="3"/><circle cx="743.7" cy="168.5" r="4.5" fill="#ffffff" stroke="#4f46e5" stroke-width="3"/><circle cx="755.4" cy="96.8" r="4.5" fill="#ffffff" stroke="#4f46e5" stroke-width="3"/><circle cx="767.2" cy="168.5" r="4.5" fill="#ffffff" stroke="#4f46e5" stroke-width="3"/><circle cx="778.9" cy="249.1" r="4.5" fill="#ffffff" stroke="#4f46e5" stroke-width="3"/><circle cx="790.6" cy="87.8" r="4.5" fill="#ffffff" stroke="#4f46e5" stroke-width="3"/><circle cx="802.3" cy="78.9" r="4.5" fill="#ffffff" stroke="#4f46e5" stroke-width="3"/><circle cx="814.1" cy="168.5" r="4.5" fill="#ffffff" stroke="#4f46e5" stroke-width="3"/><circle cx="825.8" cy="69.9" r="4.5" fill="#ffffff" stroke="#4f46e5" stroke-width="3"/><circle cx="837.5" cy="69.9" r="4.5" fill="#ffffff" stroke="#4f46e5" stroke-width="3"/><circle cx="849.2" cy="105.8" r="4.5" fill="#ffffff" stroke="#4f46e5" stroke-width="3"/><circle cx="861.0" cy="123.7" r="4.5" fill="#ffffff" stroke="#4f46e5" stroke-width="3"/><circle cx="872.7" cy="159.5" r="4.5" fill="#ffffff" stroke="#4f46e5" stroke-width="3"/><circle cx="884.4" cy="78.9" r="4.5" fill="#ffffff" stroke="#4f46e5" stroke-width="3"/><circle cx="896.1" cy="141.6" r="4.5" fill="#ffffff" stroke="#4f46e5" stroke-width="3"/><circle cx="907.9" cy="186.4" r="4.5" fill="#ffffff" stroke="#4f46e5" stroke-width="3"/><circle cx="919.6" cy="141.6" r="4.5" fill="#ffffff" stroke="#4f46e5" stroke-width="3"/><circle cx="931.3" cy="78.9" r="4.5" fill="#ffffff" stroke="#4f46e5" stroke-width="3"/><circle cx="943.0" cy="78.9" r="4.5" fill="#ffffff" stroke="#4f46e5" stroke-width="3"/><circle cx="954.8" cy="69.9" r="4.5" fill="#ffffff" stroke="#4f46e5" stroke-width="3"/><circle cx="966.5" cy="114.7" r="4.5" fill="#ffffff" stroke="#4f46e5" stroke-width="3"/><circle cx="978.2" cy="195.4" r="4.5" fill="#ffffff" stroke="#4f46e5" stroke-width="3"/><circle cx="989.9" cy="69.9" r="4.5" fill="#ffffff" stroke="#4f46e5" stroke-width="3"/><circle cx="1001.7" cy="231.2" r="4.5" fill="#ffffff" stroke="#4f46e5" stroke-width="3"/><circle cx="1013.4" cy="186.4" r="4.5" fill="#ffffff" stroke="#4f46e5" stroke-width="3"/><circle cx="1025.1" cy="213.3" r="4.5" fill="#ffffff" stroke="#4f46e5" stroke-width="3"/><circle cx="1036.8" cy="204.3" r="4.5" fill="#ffffff" stroke="#4f46e5" stroke-width="3"/><circle cx="1048.6" cy="276.0" r="4.5" fill="#ffffff" stroke="#4f46e5" stroke-width="3"/><circle cx="1060.3" cy="240.2" r="4.5" fill="#ffffff" stroke="#4f46e5" stroke-width="3"/><circle cx="1072.0" cy="87.8" r="4.5" fill="#ffffff" stroke="#4f46e5" stroke-width="3"/>
  <text x="52.0" y="322" fill="#6b7280" font-size="12" text-anchor="start" font-family="system-ui,-apple-system,sans-serif">2025-05-29</text><text x="192.7" y="322" fill="#6b7280" font-size="12" text-anchor="middle" font-family="system-ui,-apple-system,sans-serif">2025-06-22</text><text x="345.1" y="322" fill="#6b7280" font-size="12" text-anchor="middle" font-family="system-ui,-apple-system,sans-serif">2025-07-13</text><text x="485.8" y="322" fill="#6b7280" font-size="12" text-anchor="middle" font-family="system-ui,-apple-system,sans-serif">2026-02-27</text><text x="638.2" y="322" fill="#6b7280" font-size="12" text-anchor="middle" font-family="system-ui,-apple-system,sans-serif">2026-04-29</text><text x="778.9" y="322" fill="#6b7280" font-size="12" text-anchor="middle" font-family="system-ui,-apple-system,sans-serif">2026-05-21</text><text x="931.3" y="322" fill="#6b7280" font-size="12" text-anchor="middle" font-family="system-ui,-apple-system,sans-serif">2026-06-23</text><text x="1072.0" y="322" fill="#6b7280" font-size="12" text-anchor="end" font-family="system-ui,-apple-system,sans-serif">2026-07-28</text>
</svg>