<svg xmlns="http://www.w3.org/2000/svg" viewBox="0 0 1100 340" width="100%" role="img" aria-label="All Language Ranking">
  <rect width="1100" height="340" fill="#ffffff" stroke="#e5e7eb" rx="10"/>
  <text x="20" y="30" fill="#111827" font-size="18" font-weight="700" font-family="system-ui,-apple-system,sans-serif">All Language Ranking</text>
  <line x1="52" y1="96.80000000000001" x2="1072" y2="96.80000000000001" stroke="#e5e7eb" stroke-dasharray="5 5" stroke-width="1"/><line x1="52" y1="141.60000000000002" x2="1072" y2="141.60000000000002" stroke="#e5e7eb" stroke-dasharray="5 5" stroke-width="1"/><line x1="52" y1="186.4" x2="1072" y2="186.4" stroke="#e5e7eb" stroke-dasharray="5 5" stroke-width="1"/><line x1="52" y1="231.20000000000002" x2="1072" y2="231.20000000000002" stroke="#e5e7eb" stroke-dasharray="5 5" stroke-width="1"/><line x1="52" y1="276" x2="1072" y2="276" stroke="#e5e7eb" stroke-dasharray="5 5" stroke-width="1"/>
  <text x="42" y="56" fill="#6b7280" font-size="12" text-anchor="end" font-family="system-ui,-apple-system,sans-serif">0</text><text x="42" y="100.80000000000001" fill="#6b7280" font-size="12" text-anchor="end" font-family="system-ui,-apple-system,sans-serif">5</text><text x="42" y="145.60000000000002" fill="#6b7280" font-size="12" text-anchor="end" font-family="system-ui,-apple-system,sans-serif">10</text><text x="42" y="190.4" fill="#6b7280" font-size="12" text-anchor="end" font-family="system-ui,-apple-system,sans-serif">15</text><text x="42" y="235.20000000000002" fill="#6b7280" font-size="12" text-anchor="end" font-family="system-ui,-apple-system,sans-serif">20</text><text x="42" y="280" fill="#6b7280" font-size="12" text-anchor="end" font-family="system-ui,-apple-system,sans-serif">25</text>
  <path d="M52.0,159.5 L81.1,114.7 L110.3,61.0 L139.4,61.0 L168.6,61.0 L197.7,96.8 L226.9,213.3 L256.0,87.8 L285.1,258.1 L314.3,276.0 L343.4,222.2 L372.6,61.0 L401.7,123.7 L430.9,96.8 L460.0,61.0 L489.1,61.0 L518.3,78.9 L547.4,61.0 L576.6,69.9 L605.7,61.0 L634.9,159.5 L664.0,114.7 L693.1,69.9 L722.3,96.8 L751.4,87.8 L780.6,69.9 L809.7,69.9 L838.9,78.9 L868.0,132.6 L897.1,87.8 L926.3,213.3 L955.4,177.4 L984.6,276.0 L1013.7,114.7 L1042.9,78.9 L1072.0,96.8" fill="none" stroke="#4f46e5" stroke-width="3.5" stroke-linecap="round" stroke-linejoin="round"/>
  <circle cx="52.0" cy="159.5" r="4.5" fill="#ffffff" stroke="#4f46e5" stroke-width="3"/><circle cx="81.1" cy="114.7" r="4.5" fill="#ffffff" stroke="#4f46e5" stroke-width="3"/><circle cx="110.3" cy="61.0" r="4.5" fill="#ffffff" stroke="#4f46e5" stroke-width="3"/><circle cx="139.4" cy="61.0" r="4.5" fill="#ffffff" stroke="#4f46e5" stroke-width="3"/><circle cx="168.6" cy="61.0" r="4.5" fill="#ffffff" stroke="#4f46e5" stroke-width="3"/><circle cx="197.7" cy="96.8" r="4.5" fill="#ffffff" stroke="#4f46e5" stroke-width="3"/><circle cx="226.9" cy="213.3" r="4.5" fill="#ffffff" stroke="#4f46e5" stroke-width="3"/><circle cx="256.0" cy="87.8" r="4.5" fill="#ffffff" stroke="#4f46e5" stroke-width="3"/><circle cx="285.1" cy="258.1" r="4.5" fill="#ffffff" stroke="#4f46e5" stroke-width="3"/><circle cx="314.3" cy="276.0" r="4.5" fill="#ffffff" stroke="#4f46e5" stroke-width="3"/><circle cx="343.4" cy="222.2" r="4.5" fill="#ffffff" stroke="#4f46e5" stroke-width="3"/><circle cx="372.6" cy="61.0" r="4.5" fill="#ffffff" stroke="#4f46e5" stroke-width="3"/><circle cx="401.7" cy="123.7" r="4.5" fill="#ffffff" stroke="#4f46e5" stroke-width="3"/><circle cx="430.9" cy="96.8" r="4.5" fill="#ffffff" stroke="#4f46e5" stroke-width="3"/><circle cx="460.0" cy="61.0" r="4.5" fill="#ffffff" stroke="#4f46e5" stroke-width="3"/><circle cx="489.1" cy="61.0" r="4.5" fill="#ffffff" stroke="#4f46e5" stroke-width="3"/><circle cx="518.3" cy="78.9" r="4.5" fill="#ffffff" stroke="#4f46e5" stroke-width="3"/><circle cx="547.4" cy="61.0" r="4.5" fill="#ffffff" stroke="#4f46e5" stroke-width="3"/><circle cx="576.6" cy="69.9" r="4.5" fill="#ffffff" stroke="#4f46e5" stroke-width="3"/><circle cx="605.7" cy="61.0" r="4.5" fill="#ffffff" stroke="#4f46e5" stroke-width="3"/><circle cx="634.9" cy="159.5" r="4.5" fill="#ffffff" stroke="#4f46e5" stroke-width="3"/><circle cx="664.0" cy="114.7" r="4.5" fill="#ffffff" stroke="#4f46e5" stroke-width="3"/><circle cx="693.1" cy="69.9" r="4.5" fill="#ffffff" stroke="#4f46e5" stroke-width="3"/><circle cx="722.3" cy="96.8" r="4.5" fill="#ffffff" stroke="#4f46e5" stroke-width="3"/><circle cx="751.4" cy="87.8" r="4.5" fill="#ffffff" stroke="#4f46e5" stroke-width="3"/><circle cx="780.6" cy="69.9" r="4.5" fill="#ffffff" stroke="#4f46e5" stroke-width="3"/><circle cx="809.7" cy="69.9" r="4.5" fill="#ffffff" stroke="#4f46e5" stroke-width="3"/><circle cx="838.9" cy="78.9" r="4.5" fill="#ffffff" stroke="#4f46e5" stroke-width="3"/><circle cx="868.0" cy="132.6" r="4.5" fill="#ffffff" stroke="#4f46e5" stroke-width="3"/><circle cx="897.1" cy="87.8" r="4.5" fill="#ffffff" stroke="#4f46e5" stroke-width="3"/><circle cx="926.3" cy="213.3" r="4.5" fill="#ffffff" stroke="#4f46e5" stroke-width="3"/><circle cx="955.4" cy="177.4" r="4.5" fill="#ffffff" stroke="#4f46e5" stroke-width="3"/><circle cx="984.6" cy="276.0" r="4.5" fill="#ffffff" stroke="#4f46e5" stroke-width="3"/><circle cx="1013.7" cy="114.7" r="4.5" fill="#ffffff" stroke="#4f46e5" stroke-width="3"/><circle cx="1042.9" cy="78.9" r="4.5" fill="#ffffff" stroke="#4f46e5" stroke-width="3"/><circle cx="1072.0" cy="96.8" r="4.5" fill="#ffffff" stroke="#4f46e5" stroke-width="3"/>
  <text x="52.0" y="322" fill="#6b7280" font-size="12" text-anchor="middle" font-family="system-ui,-apple-system,sans-serif">2025-05-29</text><text x="197.7" y="322" fill="#6b7280" font-size="12" text-anchor="middle" font-family="system-ui,-apple-system,sans-serif">2025-06-03</text><text x="343.4" y="322" fill="#6b7280" font-size="12" text-anchor="middle" font-family="system-ui,-apple-system,sans-serif">2025-06-22</text><text x="489.1" y="322" fill="#6b7280" font-size="12" text-anchor="middle" font-family="system-ui,-apple-system,sans-serif">2025-07-09</text><text x="634.9" y="322" fill="#6b7280" font-size="12" text-anchor="middle" font-family="system-ui,-apple-system,sans-serif">2025-07-14</text><text x="780.6" y="322" fill="#6b7280" font-size="12" text-anchor="middle" font-family="system-ui,-apple-system,sans-serif">2026-04-01</text><text x="926.3" y="322" fill="#6b7280" font-size="12" text-anchor="middle" font-family="system-ui,-apple-system,sans-serif">2026-05-07</text><text x="1072.0" y="322" fill="#6b7280" font-size="12" text-anchor="middle" font-family="system-ui,-apple-system,sans-serif">2026-06-14</text>
</svg>