<svg xmlns="http://www.w3.org/2000/svg" viewBox="0 0 1100 340" width="100%" role="img" aria-label="All Language Ranking">
  <rect width="1100" height="340" fill="#161b22" stroke="#30363d" rx="10"/>
  <text x="20" y="30" fill="#e6edf3" font-size="18" font-weight="700" font-family="system-ui,-apple-system,sans-serif">All Language Ranking</text>
  <line x1="52" y1="96.80000000000001" x2="1072" y2="96.80000000000001" stroke="#30363d" stroke-dasharray="5 5" stroke-width="1"/><line x1="52" y1="141.60000000000002" x2="1072" y2="141.60000000000002" stroke="#30363d" stroke-dasharray="5 5" stroke-width="1"/><line x1="52" y1="186.4" x2="1072" y2="186.4" stroke="#30363d" stroke-dasharray="5 5" stroke-width="1"/><line x1="52" y1="231.20000000000002" x2="1072" y2="231.20000000000002" stroke="#30363d" stroke-dasharray="5 5" stroke-width="1"/><line x1="52" y1="276" x2="1072" y2="276" stroke="#30363d" stroke-dasharray="5 5" stroke-width="1"/>
  <text x="42" y="56" fill="#8b949e" font-size="12" text-anchor="end" font-family="system-ui,-apple-system,sans-serif">0</text><text x="42" y="100.80000000000001" fill="#8b949e" font-size="12" text-anchor="end" font-family="system-ui,-apple-system,sans-serif">5</text><text x="42" y="145.60000000000002" fill="#8b949e" font-size="12" text-anchor="end" font-family="system-ui,-apple-system,sans-serif">10</text><text x="42" y="190.4" fill="#8b949e" font-size="12" text-anchor="end" font-family="system-ui,-apple-system,sans-serif">15</text><text x="42" y="235.20000000000002" fill="#8b949e" font-size="12" text-anchor="end" font-family="system-ui,-apple-system,sans-serif">20</text><text x="42" y="280" fill="#8b949e" font-size="12" text-anchor="end" font-family="system-ui,-apple-system,sans-serif">25</text>
  <path d="M52.0,159.5 L80.3,114.7 L108.7,61.0 L137.0,61.0 L165.3,61.0 L193.7,96.8 L222.0,213.3 L250.3,87.8 L278.7,258.1 L307.0,276.0 L335.3,222.2 L363.7,61.0 L392.0,123.7 L420.3,96.8 L448.7,61.0 L477.0,61.0 L505.3,78.9 L533.7,61.0 L562.0,69.9 L590.3,61.0 L618.7,159.5 L647.0,114.7 L675.3,69.9 L703.7,96.8 L732.0,87.8 L760.3,69.9 L788.7,69.9 L817.0,78.9 L845.3,132.6 L873.7,87.8 L902.0,213.3 L930.3,177.4 L958.7,276.0 L987.0,114.7 L1015.3,78.9 L1043.7,96.8 L1072.0,96.8" fill="none" stroke="#818cf8" stroke-width="3.5" stroke-linecap="round" stroke-linejoin="round"/>
  <circle cx="52.0" cy="159.5" r="4.5" fill="#161b22" stroke="#818cf8" stroke-width="3"/><circle cx="80.3" cy="114.7" r="4.5" fill="#161b22" stroke="#818cf8" stroke-width="3"/><circle cx="108.7" cy="61.0" r="4.5" fill="#161b22" stroke="#818cf8" stroke-width="3"/><circle cx="137.0" cy="61.0" r="4.5" fill="#161b22" stroke="#818cf8" stroke-width="3"/><circle cx="165.3" cy="61.0" r="4.5" fill="#161b22" stroke="#818cf8" stroke-width="3"/><circle cx="193.7" cy="96.8" r="4.5" fill="#161b22" stroke="#818cf8" stroke-width="3"/><circle cx="222.0" cy="213.3" r="4.5" fill="#161b22" stroke="#818cf8" stroke-width="3"/><circle cx="250.3" cy="87.8" r="4.5" fill="#161b22" stroke="#818cf8" stroke-width="3"/><circle cx="278.7" cy="258.1" r="4.5" fill="#161b22" stroke="#818cf8" stroke-width="3"/><circle cx="307.0" cy="276.0" r="4.5" fill="#161b22" stroke="#818cf8" stroke-width="3"/><circle cx="335.3" cy="222.2" r="4.5" fill="#161b22" stroke="#818cf8" stroke-width="3"/><circle cx="363.7" cy="61.0" r="4.5" fill="#161b22" stroke="#818cf8" stroke-width="3"/><circle cx="392.0" cy="123.7" r="4.5" fill="#161b22" stroke="#818cf8" stroke-width="3"/><circle cx="420.3" cy="96.8" r="4.5" fill="#161b22" stroke="#818cf8" stroke-width="3"/><circle cx="448.7" cy="61.0" r="4.5" fill="#161b22" stroke="#818cf8" stroke-width="3"/><circle cx="477.0" cy="61.0" r="4.5" fill="#161b22" stroke="#818cf8" stroke-width="3"/><circle cx="505.3" cy="78.9" r="4.5" fill="#161b22" stroke="#818cf8" stroke-width="3"/><circle cx="533.7" cy="61.0" r="4.5" fill="#161b22" stroke="#818cf8" stroke-width="3"/><circle cx="562.0" cy="69.9" r="4.5" fill="#161b22" stroke="#818cf8" stroke-width="3"/><circle cx="590.3" cy="61.0" r="4.5" fill="#161b22" stroke="#818cf8" stroke-width="3"/><circle cx="618.7" cy="159.5" r="4.5" fill="#161b22" stroke="#818cf8" stroke-width="3"/><circle cx="647.0" cy="114.7" r="4.5" fill="#161b22" stroke="#818cf8" stroke-width="3"/><circle cx="675.3" cy="69.9" r="4.5" fill="#161b22" stroke="#818cf8" stroke-width="3"/><circle cx="703.7" cy="96.8" r="4.5" fill="#161b22" stroke="#818cf8" stroke-width="3"/><circle cx="732.0" cy="87.8" r="4.5" fill="#161b22" stroke="#818cf8" stroke-width="3"/><circle cx="760.3" cy="69.9" r="4.5" fill="#161b22" stroke="#818cf8" stroke-width="3"/><circle cx="788.7" cy="69.9" r="4.5" fill="#161b22" stroke="#818cf8" stroke-width="3"/><circle cx="817.0" cy="78.9" r="4.5" fill="#161b22" stroke="#818cf8" stroke-width="3"/><circle cx="845.3" cy="132.6" r="4.5" fill="#161b22" stroke="#818cf8" stroke-width="3"/><circle cx="873.7" cy="87.8" r="4.5" fill="#161b22" stroke="#818cf8" stroke-width="3"/><circle cx="902.0" cy="213.3" r="4.5" fill="#161b22" stroke="#818cf8" stroke-width="3"/><circle cx="930.3" cy="177.4" r="4.5" fill="#161b22" stroke="#818cf8" stroke-width="3"/><circle cx="958.7" cy="276.0" r="4.5" fill="#161b22" stroke="#818cf8" stroke-width="3"/><circle cx="987.0" cy="114.7" r="4.5" fill="#161b22" stroke="#818cf8" stroke-width="3"/><circle cx="1015.3" cy="78.9" r="4.5" fill="#161b22" stroke="#818cf8" stroke-width="3"/><circle cx="1043.7" cy="96.8" r="4.5" fill="#161b22" stroke="#818cf8" stroke-width="3"/><circle cx="1072.0" cy="96.8" r="4.5" fill="#161b22" stroke="#818cf8" stroke-width="3"/>
  <text x="52.0" y="322" fill="#8b949e" font-size="12" text-anchor="middle" font-family="system-ui,-apple-system,sans-serif">2025-05-29</text><text x="193.7" y="322" fill="#8b949e" font-size="12" text-anchor="middle" font-family="system-ui,-apple-system,sans-serif">2025-06-03</text><text x="335.3" y="322" fill="#8b949e" font-size="12" text-anchor="middle" font-family="system-ui,-apple-system,sans-serif">2025-06-22</text><text x="477.0" y="322" fill="#8b949e" font-size="12" text-anchor="middle" font-family="system-ui,-apple-system,sans-serif">2025-07-09</text><text x="647.0" y="322" fill="#8b949e" font-size="12" text-anchor="middle" font-family="system-ui,-apple-system,sans-serif">2025-07-15</text><text x="788.7" y="322" fill="#8b949e" font-size="12" text-anchor="middle" font-family="system-ui,-apple-system,sans-serif">2026-04-02</text><text x="930.3" y="322" fill="#8b949e" font-size="12" text-anchor="middle" font-family="system-ui,-apple-system,sans-serif">2026-05-22</text><text x="1072.0" y="322" fill="#8b949e" font-size="12" text-anchor="middle" font-family="system-ui,-apple-system,sans-serif">2026-06-15</text>
</svg>